<mxfile host="app.diagrams.net" agent="Mozilla/5.0 (Windows NT 10.0; Win64; x64; rv:129.0) Gecko/20100101 Firefox/129.0" version="24.7.7" pages="10">
  <diagram id="r5BUijYlLyBRQ20yqvC2" name="top_rev1">
    <mxGraphModel dx="1434" dy="866" grid="1" gridSize="10" guides="1" tooltips="1" connect="1" arrows="1" fold="1" page="0" pageScale="1" pageWidth="827" pageHeight="1169" math="0" shadow="0">
      <root>
        <mxCell id="0" />
        <mxCell id="1" parent="0" />
        <mxCell id="c5xydUIxmgUjYSwhM2tN-1" value="" style="rounded=1;whiteSpace=wrap;html=1;fillColor=#f5f5f5;fontColor=#333333;strokeColor=#666666;arcSize=5;" parent="1" vertex="1">
          <mxGeometry x="330" y="150" width="230" height="170" as="geometry" />
        </mxCell>
        <mxCell id="0TtC6hv9whjUF8AecYWr-1" value="PACKET&lt;div&gt;RECEIVER&lt;/div&gt;" style="rounded=0;whiteSpace=wrap;html=1;" parent="1" vertex="1">
          <mxGeometry x="340" y="180" width="100" height="80" as="geometry" />
        </mxCell>
        <mxCell id="LbTRptGj1K1zYirVU-JL-1" value="RX PACKET&lt;div&gt;PROCESS&lt;/div&gt;" style="rounded=0;whiteSpace=wrap;html=1;" parent="1" vertex="1">
          <mxGeometry x="450" y="180" width="100" height="80" as="geometry" />
        </mxCell>
        <mxCell id="c5xydUIxmgUjYSwhM2tN-6" value="ERROR SIGNAL" style="rounded=0;whiteSpace=wrap;html=1;" parent="1" vertex="1">
          <mxGeometry x="340" y="270" width="210" height="40" as="geometry" />
        </mxCell>
        <mxCell id="7JePOIckHCzzkWBlLprz-1" value="RX PACKET PIPELINE" style="rounded=0;whiteSpace=wrap;html=1;strokeColor=none;fillColor=none;fontStyle=1;fontFamily=Verdana;" parent="1" vertex="1">
          <mxGeometry x="330" y="150" width="200" height="30" as="geometry" />
        </mxCell>
        <mxCell id="PYzP47LIXSicYaKJQkfT-1" value="" style="rounded=1;whiteSpace=wrap;html=1;fillColor=#f5f5f5;fontColor=#333333;strokeColor=#666666;arcSize=5;" parent="1" vertex="1">
          <mxGeometry x="330" y="440" width="230" height="170" as="geometry" />
        </mxCell>
        <mxCell id="PYzP47LIXSicYaKJQkfT-2" value="PACKET&lt;div&gt;TRANSMITTER&lt;/div&gt;" style="rounded=0;whiteSpace=wrap;html=1;" parent="1" vertex="1">
          <mxGeometry x="340" y="500" width="100" height="80" as="geometry" />
        </mxCell>
        <mxCell id="PYzP47LIXSicYaKJQkfT-3" value="RETURN BUFFER" style="rounded=0;whiteSpace=wrap;html=1;" parent="1" vertex="1">
          <mxGeometry x="340" y="450" width="210" height="40" as="geometry" />
        </mxCell>
        <mxCell id="PYzP47LIXSicYaKJQkfT-5" value="TX PACKET PIPELINE" style="rounded=0;whiteSpace=wrap;html=1;strokeColor=none;fillColor=none;fontStyle=1;fontFamily=Verdana;" parent="1" vertex="1">
          <mxGeometry x="330" y="580" width="200" height="30" as="geometry" />
        </mxCell>
        <mxCell id="82GMmUhe2EMVfSWHzGn8-1" value="STATUS&lt;div&gt;BUFFER&lt;/div&gt;" style="rounded=0;whiteSpace=wrap;html=1;" parent="1" vertex="1">
          <mxGeometry x="450" y="500" width="100" height="80" as="geometry" />
        </mxCell>
        <mxCell id="xlRJn-H34H8j7HSDLrot-1" value="&lt;div&gt;QUADCORE&lt;/div&gt;&lt;div&gt;0&lt;/div&gt;" style="rounded=0;whiteSpace=wrap;html=1;" parent="1" vertex="1">
          <mxGeometry x="680" y="200" width="120" height="80" as="geometry" />
        </mxCell>
        <mxCell id="XJGLEfhNBp7NHH6K82Z3-3" value="" style="shape=flexArrow;endArrow=classic;html=1;rounded=1;fillColor=#EA6B66;strokeColor=none;entryX=0;entryY=0.25;entryDx=0;entryDy=0;" parent="1" target="XJGLEfhNBp7NHH6K82Z3-12" edge="1">
          <mxGeometry width="50" height="50" relative="1" as="geometry">
            <mxPoint x="640" y="220" as="sourcePoint" />
            <mxPoint x="680" y="365" as="targetPoint" />
            <Array as="points">
              <mxPoint x="640" y="360" />
            </Array>
          </mxGeometry>
        </mxCell>
        <mxCell id="XJGLEfhNBp7NHH6K82Z3-4" value="" style="shape=flexArrow;endArrow=classic;html=1;rounded=1;fillColor=#EA6B66;strokeColor=none;entryX=0;entryY=0.25;entryDx=0;entryDy=0;" parent="1" target="XJGLEfhNBp7NHH6K82Z3-13" edge="1">
          <mxGeometry width="50" height="50" relative="1" as="geometry">
            <mxPoint x="640" y="350" as="sourcePoint" />
            <mxPoint x="680" y="495" as="targetPoint" />
            <Array as="points">
              <mxPoint x="640" y="500" />
            </Array>
          </mxGeometry>
        </mxCell>
        <mxCell id="XJGLEfhNBp7NHH6K82Z3-1" value="" style="shape=flexArrow;endArrow=classic;html=1;rounded=0;fillColor=#EA6B66;strokeColor=none;entryX=0;entryY=0.25;entryDx=0;entryDy=0;" parent="1" target="xlRJn-H34H8j7HSDLrot-1" edge="1">
          <mxGeometry width="50" height="50" relative="1" as="geometry">
            <mxPoint x="560" y="220" as="sourcePoint" />
            <mxPoint x="680" y="245" as="targetPoint" />
          </mxGeometry>
        </mxCell>
        <mxCell id="XJGLEfhNBp7NHH6K82Z3-6" value="" style="shape=flexArrow;endArrow=classic;html=1;rounded=1;fillColor=#67AB9F;strokeColor=none;exitX=0;exitY=0.75;exitDx=0;exitDy=0;" parent="1" source="xlRJn-H34H8j7HSDLrot-1" edge="1">
          <mxGeometry width="50" height="50" relative="1" as="geometry">
            <mxPoint x="680" y="280" as="sourcePoint" />
            <mxPoint x="560" y="540" as="targetPoint" />
            <Array as="points">
              <mxPoint x="600" y="260" />
              <mxPoint x="600" y="540" />
            </Array>
          </mxGeometry>
        </mxCell>
        <mxCell id="XJGLEfhNBp7NHH6K82Z3-9" value="" style="shape=flexArrow;endArrow=none;html=1;rounded=1;fillColor=#67AB9F;strokeColor=none;endFill=0;exitX=0;exitY=0.75;exitDx=0;exitDy=0;" parent="1" source="XJGLEfhNBp7NHH6K82Z3-12" edge="1">
          <mxGeometry width="50" height="50" relative="1" as="geometry">
            <mxPoint x="680" y="415" as="sourcePoint" />
            <mxPoint x="600" y="400" as="targetPoint" />
            <Array as="points">
              <mxPoint x="620" y="400" />
            </Array>
          </mxGeometry>
        </mxCell>
        <mxCell id="XJGLEfhNBp7NHH6K82Z3-11" value="" style="shape=flexArrow;endArrow=none;html=1;rounded=1;fillColor=#67AB9F;strokeColor=none;endFill=0;exitX=0;exitY=0.75;exitDx=0;exitDy=0;" parent="1" source="XJGLEfhNBp7NHH6K82Z3-13" edge="1">
          <mxGeometry width="50" height="50" relative="1" as="geometry">
            <mxPoint x="680" y="545" as="sourcePoint" />
            <mxPoint x="590" y="540" as="targetPoint" />
            <Array as="points">
              <mxPoint x="640" y="540" />
            </Array>
          </mxGeometry>
        </mxCell>
        <mxCell id="XJGLEfhNBp7NHH6K82Z3-12" value="&lt;div&gt;QUADCORE&lt;/div&gt;&lt;div&gt;1&lt;/div&gt;" style="rounded=0;whiteSpace=wrap;html=1;" parent="1" vertex="1">
          <mxGeometry x="680" y="340" width="120" height="80" as="geometry" />
        </mxCell>
        <mxCell id="XJGLEfhNBp7NHH6K82Z3-13" value="&lt;div&gt;QUADCORE&lt;/div&gt;&lt;div&gt;N&lt;/div&gt;" style="rounded=0;whiteSpace=wrap;html=1;" parent="1" vertex="1">
          <mxGeometry x="680" y="480" width="120" height="80" as="geometry" />
        </mxCell>
        <mxCell id="bdI9STRIXf7txRxogQAi-1" value="" style="shape=flexArrow;endArrow=classic;html=1;rounded=1;exitX=0.5;exitY=1;exitDx=0;exitDy=0;fillColor=#4D4D4D;strokeColor=none;entryX=0.5;entryY=0;entryDx=0;entryDy=0;" parent="1" source="c5xydUIxmgUjYSwhM2tN-1" target="PYzP47LIXSicYaKJQkfT-1" edge="1">
          <mxGeometry width="50" height="50" relative="1" as="geometry">
            <mxPoint x="525" y="340" as="sourcePoint" />
            <mxPoint x="567" y="430" as="targetPoint" />
            <Array as="points">
              <mxPoint x="445" y="370" />
            </Array>
          </mxGeometry>
        </mxCell>
        <mxCell id="yVPqkiY9h74bmQkD_noV-1" value="UART / PCIe" style="rounded=1;whiteSpace=wrap;html=1;arcSize=6;" parent="1" vertex="1">
          <mxGeometry x="90" y="150" width="120" height="460" as="geometry" />
        </mxCell>
        <mxCell id="yVPqkiY9h74bmQkD_noV-2" value="" style="shape=flexArrow;endArrow=classic;html=1;rounded=0;fillColor=#EA6B66;strokeColor=none;entryX=0;entryY=0.25;entryDx=0;entryDy=0;" parent="1" edge="1">
          <mxGeometry width="50" height="50" relative="1" as="geometry">
            <mxPoint x="210" y="219.57" as="sourcePoint" />
            <mxPoint x="330" y="219.57" as="targetPoint" />
          </mxGeometry>
        </mxCell>
        <mxCell id="yVPqkiY9h74bmQkD_noV-3" value="" style="shape=flexArrow;endArrow=block;html=1;rounded=1;fillColor=#67AB9F;strokeColor=none;endFill=0;startArrow=none;startFill=0;" parent="1" edge="1">
          <mxGeometry width="50" height="50" relative="1" as="geometry">
            <mxPoint x="330" y="540" as="sourcePoint" />
            <mxPoint x="210" y="539.57" as="targetPoint" />
            <Array as="points">
              <mxPoint x="260" y="539.57" />
            </Array>
          </mxGeometry>
        </mxCell>
      </root>
    </mxGraphModel>
  </diagram>
  <diagram name="top_rev2" id="QX4nrBfdQlUt40ALpQCO">
    <mxGraphModel dx="1185" dy="648" grid="1" gridSize="10" guides="1" tooltips="1" connect="1" arrows="1" fold="1" page="0" pageScale="1" pageWidth="827" pageHeight="1169" math="0" shadow="0">
      <root>
        <mxCell id="Wzp--0sHXcUe3V3o1Kvt-0" />
        <mxCell id="Wzp--0sHXcUe3V3o1Kvt-1" parent="Wzp--0sHXcUe3V3o1Kvt-0" />
        <mxCell id="q6RRHu-sQg-3XSDfv_vw-2" value="" style="rounded=1;whiteSpace=wrap;html=1;fillColor=#f5f5f5;fontColor=#333333;strokeColor=#666666;arcSize=5;" parent="Wzp--0sHXcUe3V3o1Kvt-1" vertex="1">
          <mxGeometry x="670" y="160" width="170" height="460" as="geometry" />
        </mxCell>
        <mxCell id="Wzp--0sHXcUe3V3o1Kvt-2" value="" style="rounded=1;whiteSpace=wrap;html=1;fillColor=#f5f5f5;fontColor=#333333;strokeColor=#666666;arcSize=5;" parent="Wzp--0sHXcUe3V3o1Kvt-1" vertex="1">
          <mxGeometry x="320" y="160" width="230" height="180" as="geometry" />
        </mxCell>
        <mxCell id="Wzp--0sHXcUe3V3o1Kvt-3" value="PACKET&lt;div&gt;RECEIVER&lt;/div&gt;" style="rounded=0;whiteSpace=wrap;html=1;" parent="Wzp--0sHXcUe3V3o1Kvt-1" vertex="1">
          <mxGeometry x="330" y="190" width="100" height="90" as="geometry" />
        </mxCell>
        <mxCell id="Wzp--0sHXcUe3V3o1Kvt-4" value="RX PACKET&lt;div&gt;PROCESS&lt;/div&gt;" style="rounded=0;whiteSpace=wrap;html=1;" parent="Wzp--0sHXcUe3V3o1Kvt-1" vertex="1">
          <mxGeometry x="440" y="190" width="100" height="90" as="geometry" />
        </mxCell>
        <mxCell id="Wzp--0sHXcUe3V3o1Kvt-5" value="ERROR SIGNAL" style="rounded=0;whiteSpace=wrap;html=1;" parent="Wzp--0sHXcUe3V3o1Kvt-1" vertex="1">
          <mxGeometry x="330" y="290" width="210" height="40" as="geometry" />
        </mxCell>
        <mxCell id="Wzp--0sHXcUe3V3o1Kvt-6" value="RX PACKET PIPELINE" style="rounded=0;whiteSpace=wrap;html=1;strokeColor=none;fillColor=none;fontStyle=1;fontFamily=Verdana;" parent="Wzp--0sHXcUe3V3o1Kvt-1" vertex="1">
          <mxGeometry x="320" y="160" width="230" height="30" as="geometry" />
        </mxCell>
        <mxCell id="Wzp--0sHXcUe3V3o1Kvt-7" value="" style="rounded=1;whiteSpace=wrap;html=1;fillColor=#f5f5f5;fontColor=#333333;strokeColor=#666666;arcSize=5;" parent="Wzp--0sHXcUe3V3o1Kvt-1" vertex="1">
          <mxGeometry x="320" y="440" width="230" height="180" as="geometry" />
        </mxCell>
        <mxCell id="Wzp--0sHXcUe3V3o1Kvt-8" value="PACKET&lt;div&gt;TRANSMITTER&lt;/div&gt;" style="rounded=0;whiteSpace=wrap;html=1;" parent="Wzp--0sHXcUe3V3o1Kvt-1" vertex="1">
          <mxGeometry x="330" y="500" width="100" height="90" as="geometry" />
        </mxCell>
        <mxCell id="Wzp--0sHXcUe3V3o1Kvt-9" value="RETURN BUFFER" style="rounded=0;whiteSpace=wrap;html=1;" parent="Wzp--0sHXcUe3V3o1Kvt-1" vertex="1">
          <mxGeometry x="330" y="450" width="210" height="40" as="geometry" />
        </mxCell>
        <mxCell id="Wzp--0sHXcUe3V3o1Kvt-10" value="TX PACKET PIPELINE" style="rounded=0;whiteSpace=wrap;html=1;strokeColor=none;fillColor=none;fontStyle=1;fontFamily=Verdana;" parent="Wzp--0sHXcUe3V3o1Kvt-1" vertex="1">
          <mxGeometry x="320" y="590" width="230" height="30" as="geometry" />
        </mxCell>
        <mxCell id="Wzp--0sHXcUe3V3o1Kvt-11" value="STATUS&lt;div&gt;BUFFER&lt;/div&gt;" style="rounded=0;whiteSpace=wrap;html=1;" parent="Wzp--0sHXcUe3V3o1Kvt-1" vertex="1">
          <mxGeometry x="440" y="500" width="100" height="40" as="geometry" />
        </mxCell>
        <mxCell id="Wzp--0sHXcUe3V3o1Kvt-12" value="&lt;div&gt;QUADCORE&lt;/div&gt;&lt;div&gt;0&lt;/div&gt;" style="rounded=0;whiteSpace=wrap;html=1;" parent="Wzp--0sHXcUe3V3o1Kvt-1" vertex="1">
          <mxGeometry x="695" y="205" width="120" height="80" as="geometry" />
        </mxCell>
        <mxCell id="Wzp--0sHXcUe3V3o1Kvt-19" value="&lt;div&gt;QUADCORE&lt;/div&gt;&lt;div&gt;1&lt;/div&gt;" style="rounded=0;whiteSpace=wrap;html=1;" parent="Wzp--0sHXcUe3V3o1Kvt-1" vertex="1">
          <mxGeometry x="695" y="310" width="120" height="80" as="geometry" />
        </mxCell>
        <mxCell id="Wzp--0sHXcUe3V3o1Kvt-20" value="&lt;div&gt;QUADCORE&lt;/div&gt;&lt;div&gt;2&lt;/div&gt;" style="rounded=0;whiteSpace=wrap;html=1;" parent="Wzp--0sHXcUe3V3o1Kvt-1" vertex="1">
          <mxGeometry x="695" y="410" width="120" height="80" as="geometry" />
        </mxCell>
        <mxCell id="Wzp--0sHXcUe3V3o1Kvt-21" value="" style="shape=flexArrow;endArrow=classic;html=1;rounded=1;exitX=0.5;exitY=1;exitDx=0;exitDy=0;fillColor=#4D4D4D;strokeColor=none;entryX=0.5;entryY=0;entryDx=0;entryDy=0;" parent="Wzp--0sHXcUe3V3o1Kvt-1" source="Wzp--0sHXcUe3V3o1Kvt-2" target="Wzp--0sHXcUe3V3o1Kvt-7" edge="1">
          <mxGeometry width="50" height="50" relative="1" as="geometry">
            <mxPoint x="515" y="350" as="sourcePoint" />
            <mxPoint x="557" y="440" as="targetPoint" />
            <Array as="points">
              <mxPoint x="435" y="380" />
            </Array>
          </mxGeometry>
        </mxCell>
        <mxCell id="Wzp--0sHXcUe3V3o1Kvt-22" value="&lt;div&gt;UART&lt;/div&gt;&lt;div&gt;INTERFACE&lt;br&gt;&lt;/div&gt;" style="rounded=1;whiteSpace=wrap;html=1;arcSize=6;" parent="Wzp--0sHXcUe3V3o1Kvt-1" vertex="1">
          <mxGeometry x="80" y="160" width="120" height="460" as="geometry" />
        </mxCell>
        <mxCell id="Wzp--0sHXcUe3V3o1Kvt-23" value="" style="shape=flexArrow;endArrow=classic;html=1;rounded=0;fillColor=#EA6B66;strokeColor=none;entryX=0;entryY=0.25;entryDx=0;entryDy=0;" parent="Wzp--0sHXcUe3V3o1Kvt-1" edge="1">
          <mxGeometry width="50" height="50" relative="1" as="geometry">
            <mxPoint x="200" y="229.57" as="sourcePoint" />
            <mxPoint x="320" y="229.57" as="targetPoint" />
          </mxGeometry>
        </mxCell>
        <mxCell id="Wzp--0sHXcUe3V3o1Kvt-24" value="" style="shape=flexArrow;endArrow=block;html=1;rounded=1;fillColor=#67AB9F;strokeColor=none;endFill=0;startArrow=none;startFill=0;" parent="Wzp--0sHXcUe3V3o1Kvt-1" edge="1">
          <mxGeometry width="50" height="50" relative="1" as="geometry">
            <mxPoint x="320" y="550" as="sourcePoint" />
            <mxPoint x="200" y="549.57" as="targetPoint" />
            <Array as="points">
              <mxPoint x="250" y="549.57" />
            </Array>
          </mxGeometry>
        </mxCell>
        <mxCell id="q6RRHu-sQg-3XSDfv_vw-3" value="&lt;div&gt;QUADCORE&lt;/div&gt;&lt;div&gt;N&lt;/div&gt;" style="rounded=0;whiteSpace=wrap;html=1;" parent="Wzp--0sHXcUe3V3o1Kvt-1" vertex="1">
          <mxGeometry x="695" y="510" width="120" height="80" as="geometry" />
        </mxCell>
        <mxCell id="q6RRHu-sQg-3XSDfv_vw-4" value="BCRYPT CRACKER" style="rounded=0;whiteSpace=wrap;html=1;strokeColor=none;fillColor=none;fontStyle=1;fontFamily=Verdana;" parent="Wzp--0sHXcUe3V3o1Kvt-1" vertex="1">
          <mxGeometry x="670" y="160" width="170" height="30" as="geometry" />
        </mxCell>
        <mxCell id="q6RRHu-sQg-3XSDfv_vw-6" value="" style="shape=flexArrow;endArrow=classic;html=1;rounded=0;fillColor=#EA6B66;strokeColor=none;entryX=0;entryY=0.25;entryDx=0;entryDy=0;" parent="Wzp--0sHXcUe3V3o1Kvt-1" edge="1">
          <mxGeometry width="50" height="50" relative="1" as="geometry">
            <mxPoint x="550" y="229.62" as="sourcePoint" />
            <mxPoint x="670" y="229.62" as="targetPoint" />
          </mxGeometry>
        </mxCell>
        <mxCell id="q6RRHu-sQg-3XSDfv_vw-7" value="" style="shape=flexArrow;endArrow=block;html=1;rounded=1;fillColor=#67AB9F;strokeColor=none;endFill=0;startArrow=none;startFill=0;" parent="Wzp--0sHXcUe3V3o1Kvt-1" edge="1">
          <mxGeometry width="50" height="50" relative="1" as="geometry">
            <mxPoint x="670" y="550.05" as="sourcePoint" />
            <mxPoint x="550" y="549.62" as="targetPoint" />
            <Array as="points">
              <mxPoint x="600" y="549.62" />
            </Array>
          </mxGeometry>
        </mxCell>
        <mxCell id="MnyAfsPLrD5AmwFYR1Ue-0" value="PASSWORD&lt;div&gt;BUFFER&lt;/div&gt;" style="rounded=0;whiteSpace=wrap;html=1;" vertex="1" parent="Wzp--0sHXcUe3V3o1Kvt-1">
          <mxGeometry x="440" y="550" width="100" height="40" as="geometry" />
        </mxCell>
      </root>
    </mxGraphModel>
  </diagram>
  <diagram name="tx_rx_general" id="fXpxYmOd-tpmFkdJb7WC">
    <mxGraphModel dx="1389" dy="597" grid="1" gridSize="10" guides="1" tooltips="1" connect="1" arrows="1" fold="1" page="0" pageScale="1" pageWidth="827" pageHeight="1169" math="0" shadow="0">
      <root>
        <mxCell id="A8sGjd7W82fzDL1ZCPM3-0" />
        <mxCell id="A8sGjd7W82fzDL1ZCPM3-1" parent="A8sGjd7W82fzDL1ZCPM3-0" />
        <mxCell id="mB1i2zE-PJRBYDyoVGTL-2" value="" style="rounded=1;whiteSpace=wrap;html=1;fillColor=#f5f5f5;fontColor=#333333;strokeColor=#666666;arcSize=5;" parent="A8sGjd7W82fzDL1ZCPM3-1" vertex="1">
          <mxGeometry x="200" y="430" width="170" height="90" as="geometry" />
        </mxCell>
        <mxCell id="A8sGjd7W82fzDL1ZCPM3-2" value="" style="endArrow=none;dashed=1;html=1;rounded=0;strokeWidth=2;" parent="A8sGjd7W82fzDL1ZCPM3-1" edge="1">
          <mxGeometry width="50" height="50" relative="1" as="geometry">
            <mxPoint x="160" y="545" as="sourcePoint" />
            <mxPoint x="160" y="225" as="targetPoint" />
          </mxGeometry>
        </mxCell>
        <mxCell id="A8sGjd7W82fzDL1ZCPM3-3" value="" style="endArrow=none;dashed=1;html=1;rounded=0;strokeWidth=2;" parent="A8sGjd7W82fzDL1ZCPM3-1" edge="1">
          <mxGeometry width="50" height="50" relative="1" as="geometry">
            <mxPoint x="650" y="545" as="sourcePoint" />
            <mxPoint x="650" y="225" as="targetPoint" />
          </mxGeometry>
        </mxCell>
        <mxCell id="A8sGjd7W82fzDL1ZCPM3-4" value="" style="rounded=1;whiteSpace=wrap;html=1;fillColor=#f5f5f5;fontColor=#333333;strokeColor=#666666;arcSize=5;" parent="A8sGjd7W82fzDL1ZCPM3-1" vertex="1">
          <mxGeometry x="200" y="250" width="170" height="90" as="geometry" />
        </mxCell>
        <mxCell id="A8sGjd7W82fzDL1ZCPM3-5" value="UART / PCIe" style="rounded=0;whiteSpace=wrap;html=1;" parent="A8sGjd7W82fzDL1ZCPM3-1" vertex="1">
          <mxGeometry y="250" width="120" height="270" as="geometry" />
        </mxCell>
        <mxCell id="A8sGjd7W82fzDL1ZCPM3-6" value="COBS&lt;div&gt;&lt;div&gt;DECODER&lt;/div&gt;&lt;/div&gt;" style="rounded=0;whiteSpace=wrap;html=1;" parent="A8sGjd7W82fzDL1ZCPM3-1" vertex="1">
          <mxGeometry x="210" y="260" width="70" height="70" as="geometry" />
        </mxCell>
        <mxCell id="A8sGjd7W82fzDL1ZCPM3-7" value="&lt;div&gt;QUADCORE&lt;/div&gt;" style="rounded=0;whiteSpace=wrap;html=1;" parent="A8sGjd7W82fzDL1ZCPM3-1" vertex="1">
          <mxGeometry x="690" y="265" width="120" height="60" as="geometry" />
        </mxCell>
        <mxCell id="A8sGjd7W82fzDL1ZCPM3-8" value="&lt;div&gt;QUADCORE&lt;br&gt;&lt;/div&gt;" style="rounded=0;whiteSpace=wrap;html=1;" parent="A8sGjd7W82fzDL1ZCPM3-1" vertex="1">
          <mxGeometry x="690" y="360" width="120" height="60" as="geometry" />
        </mxCell>
        <mxCell id="A8sGjd7W82fzDL1ZCPM3-9" value="&lt;div&gt;QUADCORE&lt;br&gt;&lt;/div&gt;" style="rounded=0;whiteSpace=wrap;html=1;" parent="A8sGjd7W82fzDL1ZCPM3-1" vertex="1">
          <mxGeometry x="690" y="450" width="120" height="60" as="geometry" />
        </mxCell>
        <mxCell id="A8sGjd7W82fzDL1ZCPM3-11" value="" style="shape=flexArrow;endArrow=classic;html=1;rounded=0;fillColor=#4D4D4D;strokeColor=none;entryX=0;entryY=0.5;entryDx=0;entryDy=0;exitX=1;exitY=0.167;exitDx=0;exitDy=0;exitPerimeter=0;" parent="A8sGjd7W82fzDL1ZCPM3-1" source="A8sGjd7W82fzDL1ZCPM3-5" target="A8sGjd7W82fzDL1ZCPM3-4" edge="1">
          <mxGeometry width="50" height="50" relative="1" as="geometry">
            <mxPoint x="140" y="295" as="sourcePoint" />
            <mxPoint x="240" y="295" as="targetPoint" />
          </mxGeometry>
        </mxCell>
        <mxCell id="A8sGjd7W82fzDL1ZCPM3-12" value="" style="shape=flexArrow;endArrow=classic;html=1;rounded=0;exitX=1;exitY=0.5;exitDx=0;exitDy=0;fillColor=#4D4D4D;strokeColor=none;" parent="A8sGjd7W82fzDL1ZCPM3-1" source="e1kP0oV-9AF4ISjLPcmU-0" target="A8sGjd7W82fzDL1ZCPM3-7" edge="1">
          <mxGeometry width="50" height="50" relative="1" as="geometry">
            <mxPoint x="560" y="294.9999999999999" as="sourcePoint" />
            <mxPoint x="640" y="294.65999999999997" as="targetPoint" />
          </mxGeometry>
        </mxCell>
        <mxCell id="A8sGjd7W82fzDL1ZCPM3-13" value="" style="shape=flexArrow;endArrow=classic;html=1;rounded=0;fillColor=#4D4D4D;strokeColor=none;entryX=0;entryY=0.5;entryDx=0;entryDy=0;shadow=0;" parent="A8sGjd7W82fzDL1ZCPM3-1" edge="1">
          <mxGeometry width="50" height="50" relative="1" as="geometry">
            <mxPoint x="640" y="290" as="sourcePoint" />
            <mxPoint x="689.9999999999998" y="389.9999999999999" as="targetPoint" />
            <Array as="points">
              <mxPoint x="640" y="390" />
            </Array>
          </mxGeometry>
        </mxCell>
        <mxCell id="A8sGjd7W82fzDL1ZCPM3-14" value="" style="shape=flexArrow;endArrow=classic;html=1;rounded=1;fillColor=#4D4D4D;strokeColor=none;entryX=0;entryY=0.5;entryDx=0;entryDy=0;" parent="A8sGjd7W82fzDL1ZCPM3-1" edge="1">
          <mxGeometry width="50" height="50" relative="1" as="geometry">
            <mxPoint x="640" y="380" as="sourcePoint" />
            <mxPoint x="690" y="480" as="targetPoint" />
            <Array as="points">
              <mxPoint x="640" y="480" />
            </Array>
          </mxGeometry>
        </mxCell>
        <mxCell id="A8sGjd7W82fzDL1ZCPM3-15" value="&lt;font style=&quot;font-size: 14px;&quot;&gt;COMMUNICATION&lt;/font&gt;" style="rounded=0;whiteSpace=wrap;html=1;strokeColor=none;fillColor=none;fontStyle=1;fontFamily=Verdana;fontSize=14;" parent="A8sGjd7W82fzDL1ZCPM3-1" vertex="1">
          <mxGeometry x="-40" y="150" width="200" height="60" as="geometry" />
        </mxCell>
        <mxCell id="A8sGjd7W82fzDL1ZCPM3-16" value="&lt;font style=&quot;font-size: 14px;&quot;&gt;TX/RX PACKET PIPELINE&lt;/font&gt;" style="rounded=0;whiteSpace=wrap;html=1;strokeColor=none;fillColor=none;fontStyle=1;fontFamily=Verdana;fontSize=14;" parent="A8sGjd7W82fzDL1ZCPM3-1" vertex="1">
          <mxGeometry x="230" y="150" width="360" height="60" as="geometry" />
        </mxCell>
        <mxCell id="A8sGjd7W82fzDL1ZCPM3-17" value="BCRYPT CORES" style="rounded=0;whiteSpace=wrap;html=1;strokeColor=none;fillColor=none;fontStyle=1;fontFamily=Verdana;fontSize=14;" parent="A8sGjd7W82fzDL1ZCPM3-1" vertex="1">
          <mxGeometry x="660" y="150" width="180" height="60" as="geometry" />
        </mxCell>
        <mxCell id="A8sGjd7W82fzDL1ZCPM3-18" value="&lt;div&gt;CRC&lt;/div&gt;&lt;div&gt;CHECK&lt;br&gt;&lt;/div&gt;" style="rounded=0;whiteSpace=wrap;html=1;" parent="A8sGjd7W82fzDL1ZCPM3-1" vertex="1">
          <mxGeometry x="290" y="260" width="70" height="70" as="geometry" />
        </mxCell>
        <mxCell id="A8sGjd7W82fzDL1ZCPM3-19" value="&lt;font&gt;PACKET RECEIVER&lt;/font&gt;" style="rounded=0;whiteSpace=wrap;html=1;strokeColor=none;fillColor=none;fontStyle=1;fontFamily=Verdana;" parent="A8sGjd7W82fzDL1ZCPM3-1" vertex="1">
          <mxGeometry x="180" y="210" width="175" height="60" as="geometry" />
        </mxCell>
        <mxCell id="A8sGjd7W82fzDL1ZCPM3-20" value="" style="shape=flexArrow;endArrow=classic;html=1;rounded=0;exitX=1;exitY=0.5;exitDx=0;exitDy=0;fillColor=#4D4D4D;strokeColor=none;entryX=0;entryY=0.5;entryDx=0;entryDy=0;" parent="A8sGjd7W82fzDL1ZCPM3-1" source="A8sGjd7W82fzDL1ZCPM3-4" target="e1kP0oV-9AF4ISjLPcmU-0" edge="1">
          <mxGeometry width="50" height="50" relative="1" as="geometry">
            <mxPoint x="450" y="294.66" as="sourcePoint" />
            <mxPoint x="450" y="294.9999999999999" as="targetPoint" />
          </mxGeometry>
        </mxCell>
        <mxCell id="mB1i2zE-PJRBYDyoVGTL-0" value="COBS&lt;div&gt;&lt;div&gt;ENCODER&lt;/div&gt;&lt;/div&gt;" style="rounded=0;whiteSpace=wrap;html=1;" parent="A8sGjd7W82fzDL1ZCPM3-1" vertex="1">
          <mxGeometry x="210" y="440" width="70" height="70" as="geometry" />
        </mxCell>
        <mxCell id="mB1i2zE-PJRBYDyoVGTL-1" value="&lt;div&gt;CRC&lt;/div&gt;&lt;div&gt;COMPUTE&lt;br&gt;&lt;/div&gt;" style="rounded=0;whiteSpace=wrap;html=1;" parent="A8sGjd7W82fzDL1ZCPM3-1" vertex="1">
          <mxGeometry x="290" y="440" width="70" height="70" as="geometry" />
        </mxCell>
        <mxCell id="mB1i2zE-PJRBYDyoVGTL-3" value="&lt;font&gt;PACKET TRANSMITTER&lt;/font&gt;" style="rounded=0;whiteSpace=wrap;html=1;strokeColor=none;fillColor=none;fontStyle=1;fontFamily=Verdana;" parent="A8sGjd7W82fzDL1ZCPM3-1" vertex="1">
          <mxGeometry x="200" y="500" width="162.5" height="60" as="geometry" />
        </mxCell>
        <mxCell id="e1kP0oV-9AF4ISjLPcmU-0" value="" style="rounded=1;whiteSpace=wrap;html=1;fillColor=#f5f5f5;fontColor=#333333;strokeColor=#666666;arcSize=5;" parent="A8sGjd7W82fzDL1ZCPM3-1" vertex="1">
          <mxGeometry x="440" y="250" width="170" height="90" as="geometry" />
        </mxCell>
        <mxCell id="e1kP0oV-9AF4ISjLPcmU-1" value="DATA BUFFER" style="rounded=0;whiteSpace=wrap;html=1;" parent="A8sGjd7W82fzDL1ZCPM3-1" vertex="1">
          <mxGeometry x="450" y="260" width="70" height="70" as="geometry" />
        </mxCell>
        <mxCell id="e1kP0oV-9AF4ISjLPcmU-2" value="&lt;div&gt;ERROR&lt;/div&gt;&lt;div&gt;CHECK&lt;/div&gt;" style="rounded=0;whiteSpace=wrap;html=1;" parent="A8sGjd7W82fzDL1ZCPM3-1" vertex="1">
          <mxGeometry x="530" y="260" width="70" height="70" as="geometry" />
        </mxCell>
        <mxCell id="e1kP0oV-9AF4ISjLPcmU-3" value="&lt;font&gt;RX PACKET PROCESS&lt;/font&gt;" style="rounded=0;whiteSpace=wrap;html=1;strokeColor=none;fillColor=none;fontStyle=1;fontFamily=Verdana;" parent="A8sGjd7W82fzDL1ZCPM3-1" vertex="1">
          <mxGeometry x="440" y="210" width="150" height="60" as="geometry" />
        </mxCell>
        <mxCell id="e1kP0oV-9AF4ISjLPcmU-4" value="" style="rounded=1;whiteSpace=wrap;html=1;fillColor=#f5f5f5;fontColor=#333333;strokeColor=#666666;arcSize=5;" parent="A8sGjd7W82fzDL1ZCPM3-1" vertex="1">
          <mxGeometry x="440" y="430" width="170" height="90" as="geometry" />
        </mxCell>
        <mxCell id="e1kP0oV-9AF4ISjLPcmU-5" value="DATA BUFFER" style="rounded=0;whiteSpace=wrap;html=1;" parent="A8sGjd7W82fzDL1ZCPM3-1" vertex="1">
          <mxGeometry x="450" y="440" width="70" height="70" as="geometry" />
        </mxCell>
        <mxCell id="e1kP0oV-9AF4ISjLPcmU-6" value="&lt;div&gt;RETURN DATA PROCESS&lt;/div&gt;" style="rounded=0;whiteSpace=wrap;html=1;" parent="A8sGjd7W82fzDL1ZCPM3-1" vertex="1">
          <mxGeometry x="530" y="440" width="70" height="70" as="geometry" />
        </mxCell>
        <mxCell id="e1kP0oV-9AF4ISjLPcmU-9" value="&lt;font&gt;TX PACKET PROCESS&lt;/font&gt;" style="rounded=0;whiteSpace=wrap;html=1;strokeColor=none;fillColor=none;fontStyle=1;fontFamily=Verdana;" parent="A8sGjd7W82fzDL1ZCPM3-1" vertex="1">
          <mxGeometry x="440" y="500" width="150" height="60" as="geometry" />
        </mxCell>
        <mxCell id="e1kP0oV-9AF4ISjLPcmU-10" value="" style="shape=flexArrow;endArrow=classic;html=1;rounded=1;exitX=0.5;exitY=1;exitDx=0;exitDy=0;fillColor=#4D4D4D;strokeColor=none;entryX=0.25;entryY=0;entryDx=0;entryDy=0;" parent="A8sGjd7W82fzDL1ZCPM3-1" source="A8sGjd7W82fzDL1ZCPM3-4" target="e1kP0oV-9AF4ISjLPcmU-4" edge="1">
          <mxGeometry width="50" height="50" relative="1" as="geometry">
            <mxPoint x="300" y="380" as="sourcePoint" />
            <mxPoint x="520" y="390" as="targetPoint" />
            <Array as="points">
              <mxPoint x="285" y="390" />
              <mxPoint x="380" y="390" />
              <mxPoint x="483" y="390" />
            </Array>
          </mxGeometry>
        </mxCell>
        <mxCell id="e1kP0oV-9AF4ISjLPcmU-12" value="" style="shape=flexArrow;endArrow=classic;html=1;rounded=1;exitX=0.5;exitY=1;exitDx=0;exitDy=0;fillColor=#4D4D4D;strokeColor=none;entryX=0.75;entryY=0;entryDx=0;entryDy=0;" parent="A8sGjd7W82fzDL1ZCPM3-1" source="e1kP0oV-9AF4ISjLPcmU-0" target="e1kP0oV-9AF4ISjLPcmU-4" edge="1">
          <mxGeometry width="50" height="50" relative="1" as="geometry">
            <mxPoint x="520" y="360" as="sourcePoint" />
            <mxPoint x="718" y="450" as="targetPoint" />
            <Array as="points">
              <mxPoint x="525" y="390" />
              <mxPoint x="568" y="390" />
            </Array>
          </mxGeometry>
        </mxCell>
        <mxCell id="e1kP0oV-9AF4ISjLPcmU-13" value="" style="shape=flexArrow;endArrow=classic;html=1;rounded=0;exitX=0;exitY=0.5;exitDx=0;exitDy=0;fillColor=#4D4D4D;strokeColor=none;entryX=1;entryY=0.5;entryDx=0;entryDy=0;" parent="A8sGjd7W82fzDL1ZCPM3-1" source="e1kP0oV-9AF4ISjLPcmU-4" target="mB1i2zE-PJRBYDyoVGTL-2" edge="1">
          <mxGeometry width="50" height="50" relative="1" as="geometry">
            <mxPoint x="385" y="590" as="sourcePoint" />
            <mxPoint x="455" y="590" as="targetPoint" />
          </mxGeometry>
        </mxCell>
        <mxCell id="e1kP0oV-9AF4ISjLPcmU-15" value="" style="shape=flexArrow;endArrow=none;html=1;rounded=0;fillColor=#4D4D4D;strokeColor=none;entryX=0;entryY=0.5;entryDx=0;entryDy=0;startArrow=block;endFill=0;" parent="A8sGjd7W82fzDL1ZCPM3-1" edge="1">
          <mxGeometry width="50" height="50" relative="1" as="geometry">
            <mxPoint x="120" y="475" as="sourcePoint" />
            <mxPoint x="200" y="474.58000000000004" as="targetPoint" />
          </mxGeometry>
        </mxCell>
      </root>
    </mxGraphModel>
  </diagram>
  <diagram name="tx_general" id="wWGyB7CY458hCMCGl9B1">
    <mxGraphModel dx="1195" dy="722" grid="1" gridSize="10" guides="1" tooltips="1" connect="1" arrows="1" fold="1" page="1" pageScale="1" pageWidth="827" pageHeight="1169" math="0" shadow="0">
      <root>
        <mxCell id="0" />
        <mxCell id="1" parent="0" />
        <mxCell id="kW2f-uZVSnXoy2bMKub4-27" value="" style="endArrow=none;dashed=1;html=1;rounded=0;strokeWidth=2;" parent="1" edge="1">
          <mxGeometry width="50" height="50" relative="1" as="geometry">
            <mxPoint x="240" y="530" as="sourcePoint" />
            <mxPoint x="240" y="210" as="targetPoint" />
          </mxGeometry>
        </mxCell>
        <mxCell id="kW2f-uZVSnXoy2bMKub4-28" value="" style="endArrow=none;dashed=1;html=1;rounded=0;strokeWidth=2;" parent="1" edge="1">
          <mxGeometry width="50" height="50" relative="1" as="geometry">
            <mxPoint x="600" y="530" as="sourcePoint" />
            <mxPoint x="600" y="210" as="targetPoint" />
          </mxGeometry>
        </mxCell>
        <mxCell id="kW2f-uZVSnXoy2bMKub4-5" value="" style="rounded=1;whiteSpace=wrap;html=1;fillColor=#f5f5f5;fontColor=#333333;strokeColor=#666666;arcSize=5;" parent="1" vertex="1">
          <mxGeometry x="280" y="250" width="170" height="90" as="geometry" />
        </mxCell>
        <mxCell id="luzURdqNToG3hxR_e6jb-1" value="UART / PCIe" style="rounded=0;whiteSpace=wrap;html=1;" parent="1" vertex="1">
          <mxGeometry x="80" y="250" width="120" height="90" as="geometry" />
        </mxCell>
        <mxCell id="kW2f-uZVSnXoy2bMKub4-1" value="COBS&lt;div&gt;&lt;div&gt;DECODER&lt;/div&gt;&lt;/div&gt;" style="rounded=0;whiteSpace=wrap;html=1;" parent="1" vertex="1">
          <mxGeometry x="290" y="260" width="70" height="70" as="geometry" />
        </mxCell>
        <mxCell id="kW2f-uZVSnXoy2bMKub4-2" value="&lt;div&gt;QUADCORE&lt;/div&gt;" style="rounded=0;whiteSpace=wrap;html=1;" parent="1" vertex="1">
          <mxGeometry x="640" y="265" width="120" height="60" as="geometry" />
        </mxCell>
        <mxCell id="kW2f-uZVSnXoy2bMKub4-3" value="&lt;div&gt;QUADCORE&lt;br&gt;&lt;/div&gt;" style="rounded=0;whiteSpace=wrap;html=1;" parent="1" vertex="1">
          <mxGeometry x="640" y="360" width="120" height="60" as="geometry" />
        </mxCell>
        <mxCell id="kW2f-uZVSnXoy2bMKub4-4" value="&lt;div&gt;QUADCORE&lt;br&gt;&lt;/div&gt;" style="rounded=0;whiteSpace=wrap;html=1;" parent="1" vertex="1">
          <mxGeometry x="640" y="450" width="120" height="60" as="geometry" />
        </mxCell>
        <mxCell id="kW2f-uZVSnXoy2bMKub4-7" value="DATA&lt;div&gt;BUFFER&lt;/div&gt;" style="rounded=0;whiteSpace=wrap;html=1;" parent="1" vertex="1">
          <mxGeometry x="490" y="250" width="70" height="90" as="geometry" />
        </mxCell>
        <mxCell id="kW2f-uZVSnXoy2bMKub4-8" value="" style="shape=flexArrow;endArrow=classic;html=1;rounded=0;exitX=1;exitY=0.5;exitDx=0;exitDy=0;fillColor=#4D4D4D;strokeColor=none;entryX=0;entryY=0.5;entryDx=0;entryDy=0;" parent="1" source="luzURdqNToG3hxR_e6jb-1" target="kW2f-uZVSnXoy2bMKub4-5" edge="1">
          <mxGeometry width="50" height="50" relative="1" as="geometry">
            <mxPoint x="240" y="330" as="sourcePoint" />
            <mxPoint x="240" y="295" as="targetPoint" />
          </mxGeometry>
        </mxCell>
        <mxCell id="kW2f-uZVSnXoy2bMKub4-9" value="" style="shape=flexArrow;endArrow=classic;html=1;rounded=0;exitX=1;exitY=0.5;exitDx=0;exitDy=0;fillColor=#4D4D4D;strokeColor=none;" parent="1" edge="1">
          <mxGeometry width="50" height="50" relative="1" as="geometry">
            <mxPoint x="560" y="294.94999999999993" as="sourcePoint" />
            <mxPoint x="640" y="294.65999999999997" as="targetPoint" />
          </mxGeometry>
        </mxCell>
        <mxCell id="kW2f-uZVSnXoy2bMKub4-10" value="" style="shape=flexArrow;endArrow=classic;html=1;rounded=0;fillColor=#4D4D4D;strokeColor=none;entryX=0;entryY=0.5;entryDx=0;entryDy=0;shadow=0;" parent="1" edge="1">
          <mxGeometry width="50" height="50" relative="1" as="geometry">
            <mxPoint x="590" y="290" as="sourcePoint" />
            <mxPoint x="639.9999999999998" y="389.9999999999999" as="targetPoint" />
            <Array as="points">
              <mxPoint x="590" y="390" />
            </Array>
          </mxGeometry>
        </mxCell>
        <mxCell id="kW2f-uZVSnXoy2bMKub4-11" value="" style="shape=flexArrow;endArrow=classic;html=1;rounded=1;fillColor=#4D4D4D;strokeColor=none;entryX=0;entryY=0.5;entryDx=0;entryDy=0;" parent="1" edge="1">
          <mxGeometry width="50" height="50" relative="1" as="geometry">
            <mxPoint x="590" y="380" as="sourcePoint" />
            <mxPoint x="640" y="480" as="targetPoint" />
            <Array as="points">
              <mxPoint x="590" y="480" />
            </Array>
          </mxGeometry>
        </mxCell>
        <mxCell id="kW2f-uZVSnXoy2bMKub4-29" value="&lt;font style=&quot;font-size: 14px;&quot;&gt;COMMUNICATION&lt;/font&gt;" style="rounded=0;whiteSpace=wrap;html=1;strokeColor=none;fillColor=none;fontStyle=1;fontFamily=Verdana;fontSize=14;" parent="1" vertex="1">
          <mxGeometry x="40" y="150" width="200" height="60" as="geometry" />
        </mxCell>
        <mxCell id="kW2f-uZVSnXoy2bMKub4-30" value="&lt;font style=&quot;font-size: 14px;&quot;&gt;PACKET PROCESS&lt;/font&gt;" style="rounded=0;whiteSpace=wrap;html=1;strokeColor=none;fillColor=none;fontStyle=1;fontFamily=Verdana;fontSize=14;" parent="1" vertex="1">
          <mxGeometry x="240" y="150" width="360" height="60" as="geometry" />
        </mxCell>
        <mxCell id="kW2f-uZVSnXoy2bMKub4-31" value="BCRYPT CORES" style="rounded=0;whiteSpace=wrap;html=1;strokeColor=none;fillColor=none;fontStyle=1;fontFamily=Verdana;fontSize=14;" parent="1" vertex="1">
          <mxGeometry x="610" y="150" width="180" height="60" as="geometry" />
        </mxCell>
        <mxCell id="DsgOxgg1TdwKokWb8J3w-3" value="&lt;div&gt;CRC&lt;/div&gt;&lt;div&gt;CHECK&lt;br&gt;&lt;/div&gt;" style="rounded=0;whiteSpace=wrap;html=1;" parent="1" vertex="1">
          <mxGeometry x="370" y="260" width="70" height="70" as="geometry" />
        </mxCell>
        <mxCell id="TCaUU9XWG-o6mrFI4UNr-1" value="&lt;font&gt;PACKET RECEIVER&lt;/font&gt;" style="rounded=0;whiteSpace=wrap;html=1;strokeColor=none;fillColor=none;fontStyle=1;fontFamily=Verdana;" parent="1" vertex="1">
          <mxGeometry x="260" y="210" width="175" height="60" as="geometry" />
        </mxCell>
        <mxCell id="TCaUU9XWG-o6mrFI4UNr-3" value="" style="shape=flexArrow;endArrow=classic;html=1;rounded=0;exitX=1;exitY=0.5;exitDx=0;exitDy=0;fillColor=#4D4D4D;strokeColor=none;entryX=0;entryY=0.5;entryDx=0;entryDy=0;" parent="1" target="kW2f-uZVSnXoy2bMKub4-7" edge="1">
          <mxGeometry width="50" height="50" relative="1" as="geometry">
            <mxPoint x="450" y="294.66" as="sourcePoint" />
            <mxPoint x="530" y="294.66" as="targetPoint" />
          </mxGeometry>
        </mxCell>
      </root>
    </mxGraphModel>
  </diagram>
  <diagram name="packet_format" id="G6zzntuNKbnf9A6o_d2O">
    <mxGraphModel dx="1185" dy="648" grid="1" gridSize="10" guides="1" tooltips="1" connect="1" arrows="1" fold="1" page="1" pageScale="1" pageWidth="827" pageHeight="1169" math="0" shadow="0">
      <root>
        <mxCell id="nfLbTBA1eh99CzJdp0Rh-0" />
        <mxCell id="nfLbTBA1eh99CzJdp0Rh-1" parent="nfLbTBA1eh99CzJdp0Rh-0" />
        <mxCell id="nfLbTBA1eh99CzJdp0Rh-15" value="&lt;div&gt;COBS&lt;br&gt;&lt;/div&gt;&lt;div&gt;HEAD&lt;/div&gt;" style="rounded=0;whiteSpace=wrap;html=1;" vertex="1" parent="nfLbTBA1eh99CzJdp0Rh-1">
          <mxGeometry x="194" y="180" width="80" height="40" as="geometry" />
        </mxCell>
        <mxCell id="nfLbTBA1eh99CzJdp0Rh-16" value="1 Byte" style="rounded=0;whiteSpace=wrap;html=1;fillColor=none;strokeColor=none;" vertex="1" parent="nfLbTBA1eh99CzJdp0Rh-1">
          <mxGeometry x="194" y="140" width="80" height="40" as="geometry" />
        </mxCell>
        <mxCell id="nfLbTBA1eh99CzJdp0Rh-17" value="PAYLOAD" style="rounded=0;whiteSpace=wrap;html=1;" vertex="1" parent="nfLbTBA1eh99CzJdp0Rh-1">
          <mxGeometry x="354" y="180" width="120" height="40" as="geometry" />
        </mxCell>
        <mxCell id="nfLbTBA1eh99CzJdp0Rh-18" value="Variable" style="rounded=0;whiteSpace=wrap;html=1;fillColor=none;strokeColor=none;" vertex="1" parent="nfLbTBA1eh99CzJdp0Rh-1">
          <mxGeometry x="354" y="140" width="120" height="40" as="geometry" />
        </mxCell>
        <mxCell id="nfLbTBA1eh99CzJdp0Rh-19" value="&lt;div&gt;COBS&lt;/div&gt;&lt;div&gt;&lt;span style=&quot;background-color: initial;&quot;&gt;END&lt;/span&gt;&lt;/div&gt;" style="rounded=0;whiteSpace=wrap;html=1;" vertex="1" parent="nfLbTBA1eh99CzJdp0Rh-1">
          <mxGeometry x="554" y="180" width="80" height="40" as="geometry" />
        </mxCell>
        <mxCell id="nfLbTBA1eh99CzJdp0Rh-20" value="PACKET FORMAT" style="rounded=0;whiteSpace=wrap;html=1;fillColor=none;strokeColor=none;fontFamily=Verdana;fontStyle=1;fontSize=20;" vertex="1" parent="nfLbTBA1eh99CzJdp0Rh-1">
          <mxGeometry x="280" y="90" width="280" height="40" as="geometry" />
        </mxCell>
        <mxCell id="nfLbTBA1eh99CzJdp0Rh-21" value="CRC" style="rounded=0;whiteSpace=wrap;html=1;" vertex="1" parent="nfLbTBA1eh99CzJdp0Rh-1">
          <mxGeometry x="474" y="180" width="80" height="40" as="geometry" />
        </mxCell>
        <mxCell id="nfLbTBA1eh99CzJdp0Rh-22" value="1 Byte" style="rounded=0;whiteSpace=wrap;html=1;fillColor=none;strokeColor=none;" vertex="1" parent="nfLbTBA1eh99CzJdp0Rh-1">
          <mxGeometry x="474" y="140" width="80" height="40" as="geometry" />
        </mxCell>
        <mxCell id="nfLbTBA1eh99CzJdp0Rh-23" value="1 Byte" style="rounded=0;whiteSpace=wrap;html=1;fillColor=none;strokeColor=none;" vertex="1" parent="nfLbTBA1eh99CzJdp0Rh-1">
          <mxGeometry x="554" y="140" width="80" height="40" as="geometry" />
        </mxCell>
        <mxCell id="nfLbTBA1eh99CzJdp0Rh-24" value="PAYLOAD&lt;div&gt;LENGTH&lt;/div&gt;" style="rounded=0;whiteSpace=wrap;html=1;" vertex="1" parent="nfLbTBA1eh99CzJdp0Rh-1">
          <mxGeometry x="274" y="180" width="80" height="40" as="geometry" />
        </mxCell>
        <mxCell id="nfLbTBA1eh99CzJdp0Rh-25" value="1 Byte" style="rounded=0;whiteSpace=wrap;html=1;fillColor=none;strokeColor=none;" vertex="1" parent="nfLbTBA1eh99CzJdp0Rh-1">
          <mxGeometry x="274" y="140" width="80" height="40" as="geometry" />
        </mxCell>
      </root>
    </mxGraphModel>
  </diagram>
  <diagram id="Ej6dJNtUA6J3Xb9uRzSc" name="mosi_payload_format">
    <mxGraphModel dx="1728" dy="945" grid="1" gridSize="10" guides="1" tooltips="1" connect="1" arrows="1" fold="1" page="1" pageScale="1" pageWidth="827" pageHeight="1169" math="0" shadow="0">
      <root>
        <mxCell id="0" />
        <mxCell id="1" parent="0" />
        <mxCell id="Kbpwj_XkhxJdl01qxhKT-2" value="ID" style="rounded=0;whiteSpace=wrap;html=1;" parent="1" vertex="1">
          <mxGeometry x="140" y="350" width="40" height="40" as="geometry" />
        </mxCell>
        <mxCell id="Kbpwj_XkhxJdl01qxhKT-3" value="1 Byte" style="rounded=0;whiteSpace=wrap;html=1;fillColor=none;strokeColor=none;" parent="1" vertex="1">
          <mxGeometry x="140" y="310" width="40" height="40" as="geometry" />
        </mxCell>
        <mxCell id="Kbpwj_XkhxJdl01qxhKT-4" value="CRACK MAX" style="rounded=0;whiteSpace=wrap;html=1;" parent="1" vertex="1">
          <mxGeometry x="180" y="350" width="80" height="40" as="geometry" />
        </mxCell>
        <mxCell id="Kbpwj_XkhxJdl01qxhKT-5" value="4 Bytes" style="rounded=0;whiteSpace=wrap;html=1;fillColor=none;strokeColor=none;" parent="1" vertex="1">
          <mxGeometry x="180" y="310" width="80" height="40" as="geometry" />
        </mxCell>
        <mxCell id="Kbpwj_XkhxJdl01qxhKT-6" value="SALT" style="rounded=0;whiteSpace=wrap;html=1;" parent="1" vertex="1">
          <mxGeometry x="260" y="350" width="120" height="40" as="geometry" />
        </mxCell>
        <mxCell id="Kbpwj_XkhxJdl01qxhKT-7" value="16 Bytes" style="rounded=0;whiteSpace=wrap;html=1;fillColor=none;strokeColor=none;" parent="1" vertex="1">
          <mxGeometry x="260" y="310" width="120" height="40" as="geometry" />
        </mxCell>
        <mxCell id="Kbpwj_XkhxJdl01qxhKT-8" value="HASH" style="rounded=0;whiteSpace=wrap;html=1;" parent="1" vertex="1">
          <mxGeometry x="380" y="350" width="120" height="40" as="geometry" />
        </mxCell>
        <mxCell id="Kbpwj_XkhxJdl01qxhKT-9" value="23 Bytes" style="rounded=0;whiteSpace=wrap;html=1;fillColor=none;strokeColor=none;" parent="1" vertex="1">
          <mxGeometry x="380" y="310" width="120" height="40" as="geometry" />
        </mxCell>
        <mxCell id="Kbpwj_XkhxJdl01qxhKT-10" value="PWD COUNTER INIT" style="rounded=0;whiteSpace=wrap;html=1;" parent="1" vertex="1">
          <mxGeometry x="500" y="350" width="160" height="40" as="geometry" />
        </mxCell>
        <mxCell id="Kbpwj_XkhxJdl01qxhKT-11" value="54 Bytes" style="rounded=0;whiteSpace=wrap;html=1;fillColor=none;strokeColor=none;" parent="1" vertex="1">
          <mxGeometry x="500" y="310" width="160" height="40" as="geometry" />
        </mxCell>
        <mxCell id="Kbpwj_XkhxJdl01qxhKT-12" value="" style="endArrow=classic;html=1;rounded=0;startArrow=classic;startFill=1;" parent="1" edge="1">
          <mxGeometry width="50" height="50" relative="1" as="geometry">
            <mxPoint x="140" y="410" as="sourcePoint" />
            <mxPoint x="700" y="410" as="targetPoint" />
          </mxGeometry>
        </mxCell>
        <mxCell id="Kbpwj_XkhxJdl01qxhKT-13" value="&lt;span&gt;99 Bytes&lt;/span&gt;" style="rounded=0;whiteSpace=wrap;html=1;fillColor=none;strokeColor=none;fontFamily=Verdana;fontStyle=1" parent="1" vertex="1">
          <mxGeometry x="140" y="420" width="560" height="40" as="geometry" />
        </mxCell>
        <mxCell id="KJlfXx-siTSAB3NleRVp-1" value="PAYLOAD FORMAT - BCRYPT QUADCORE INIT" style="rounded=0;whiteSpace=wrap;html=1;fillColor=none;strokeColor=none;fontFamily=Verdana;fontStyle=1;fontSize=20;" parent="1" vertex="1">
          <mxGeometry x="120" y="260" width="600" height="40" as="geometry" />
        </mxCell>
        <mxCell id="u8Z3jXi60xxVs2f5sU4P-1" value="PWD&lt;div&gt;LEN&lt;/div&gt;" style="rounded=0;whiteSpace=wrap;html=1;" parent="1" vertex="1">
          <mxGeometry x="660" y="350" width="40" height="40" as="geometry" />
        </mxCell>
        <mxCell id="u8Z3jXi60xxVs2f5sU4P-2" value="1 Byte" style="rounded=0;whiteSpace=wrap;html=1;fillColor=none;strokeColor=none;" parent="1" vertex="1">
          <mxGeometry x="660" y="310" width="40" height="40" as="geometry" />
        </mxCell>
      </root>
    </mxGraphModel>
  </diagram>
  <diagram name="return_payload_format" id="Z4n1EmmWDnb84IFplHaJ">
    <mxGraphModel dx="1430" dy="782" grid="1" gridSize="10" guides="1" tooltips="1" connect="1" arrows="1" fold="1" page="1" pageScale="1" pageWidth="827" pageHeight="1169" math="0" shadow="0">
      <root>
        <mxCell id="XfY-5uddvDzkwnrOyhL--0" />
        <mxCell id="XfY-5uddvDzkwnrOyhL--1" parent="XfY-5uddvDzkwnrOyhL--0" />
        <mxCell id="XfY-5uddvDzkwnrOyhL--28" value="PAYLOAD FORMAT - RETURN" style="rounded=0;whiteSpace=wrap;html=1;fillColor=none;strokeColor=none;fontFamily=Verdana;fontStyle=1;fontSize=20;" parent="XfY-5uddvDzkwnrOyhL--1" vertex="1">
          <mxGeometry x="160" y="280" width="480" height="40" as="geometry" />
        </mxCell>
        <mxCell id="XfY-5uddvDzkwnrOyhL--29" value="&lt;font&gt;0&lt;/font&gt;" style="rounded=0;whiteSpace=wrap;html=1;fillColor=#f8cecc;strokeColor=#b85450;fontColor=default;" parent="XfY-5uddvDzkwnrOyhL--1" vertex="1">
          <mxGeometry x="240" y="360" width="40" height="40" as="geometry" />
        </mxCell>
        <mxCell id="XfY-5uddvDzkwnrOyhL--30" value="0" style="rounded=0;whiteSpace=wrap;html=1;fillColor=#f8cecc;strokeColor=#b85450;" parent="XfY-5uddvDzkwnrOyhL--1" vertex="1">
          <mxGeometry x="280" y="360" width="40" height="40" as="geometry" />
        </mxCell>
        <mxCell id="XfY-5uddvDzkwnrOyhL--31" value="0" style="rounded=0;whiteSpace=wrap;html=1;fillColor=#f8cecc;strokeColor=#b85450;" parent="XfY-5uddvDzkwnrOyhL--1" vertex="1">
          <mxGeometry x="320" y="360" width="40" height="40" as="geometry" />
        </mxCell>
        <mxCell id="XfY-5uddvDzkwnrOyhL--32" value="0" style="rounded=0;whiteSpace=wrap;html=1;fillColor=#f8cecc;strokeColor=#b85450;" parent="XfY-5uddvDzkwnrOyhL--1" vertex="1">
          <mxGeometry x="360" y="360" width="40" height="40" as="geometry" />
        </mxCell>
        <mxCell id="XfY-5uddvDzkwnrOyhL--33" value="0" style="rounded=0;whiteSpace=wrap;html=1;fillColor=#f8cecc;strokeColor=#b85450;" parent="XfY-5uddvDzkwnrOyhL--1" vertex="1">
          <mxGeometry x="400" y="360" width="40" height="40" as="geometry" />
        </mxCell>
        <mxCell id="XfY-5uddvDzkwnrOyhL--34" value="X" style="rounded=0;whiteSpace=wrap;html=1;fillColor=#ffe6cc;strokeColor=#d79b00;" parent="XfY-5uddvDzkwnrOyhL--1" vertex="1">
          <mxGeometry x="440" y="360" width="40" height="40" as="geometry" />
        </mxCell>
        <mxCell id="XfY-5uddvDzkwnrOyhL--35" value="X" style="rounded=0;whiteSpace=wrap;html=1;fillColor=#ffe6cc;strokeColor=#d79b00;" parent="XfY-5uddvDzkwnrOyhL--1" vertex="1">
          <mxGeometry x="480" y="360" width="40" height="40" as="geometry" />
        </mxCell>
        <mxCell id="XfY-5uddvDzkwnrOyhL--36" value="X" style="rounded=0;whiteSpace=wrap;html=1;fillColor=#ffe6cc;strokeColor=#d79b00;" parent="XfY-5uddvDzkwnrOyhL--1" vertex="1">
          <mxGeometry x="520" y="360" width="40" height="40" as="geometry" />
        </mxCell>
        <mxCell id="XfY-5uddvDzkwnrOyhL--37" value="" style="endArrow=classic;html=1;rounded=0;startArrow=classic;startFill=1;" parent="XfY-5uddvDzkwnrOyhL--1" edge="1">
          <mxGeometry width="50" height="50" relative="1" as="geometry">
            <mxPoint x="240" y="420" as="sourcePoint" />
            <mxPoint x="560" y="420" as="targetPoint" />
          </mxGeometry>
        </mxCell>
        <mxCell id="XfY-5uddvDzkwnrOyhL--38" value="&lt;span&gt;1 Byte&lt;/span&gt;" style="rounded=0;whiteSpace=wrap;html=1;fillColor=none;strokeColor=none;fontFamily=Verdana;fontStyle=1" parent="XfY-5uddvDzkwnrOyhL--1" vertex="1">
          <mxGeometry x="240" y="420" width="320" height="40" as="geometry" />
        </mxCell>
        <mxCell id="1qaHAZrX6FLpCc5okHX_-0" value="TYPE" style="rounded=0;whiteSpace=wrap;html=1;fillColor=#f5f5f5;strokeColor=#666666;fontColor=#333333;" parent="XfY-5uddvDzkwnrOyhL--1" vertex="1">
          <mxGeometry x="240" y="320" width="200" height="40" as="geometry" />
        </mxCell>
        <mxCell id="1qaHAZrX6FLpCc5okHX_-1" value="RETURN DATA" style="rounded=0;whiteSpace=wrap;html=1;fillColor=#f5f5f5;strokeColor=#666666;fontColor=#333333;" parent="XfY-5uddvDzkwnrOyhL--1" vertex="1">
          <mxGeometry x="440" y="320" width="120" height="40" as="geometry" />
        </mxCell>
      </root>
    </mxGraphModel>
  </diagram>
  <diagram name="miso_payload_format" id="emFZIRi6hUZW0g4Mi_YE">
    <mxGraphModel dx="1430" dy="782" grid="1" gridSize="10" guides="1" tooltips="1" connect="1" arrows="1" fold="1" page="1" pageScale="1" pageWidth="827" pageHeight="1169" math="0" shadow="0">
      <root>
        <mxCell id="y1Utzvj6Of_-lDwIv3yW-0" />
        <mxCell id="y1Utzvj6Of_-lDwIv3yW-1" parent="y1Utzvj6Of_-lDwIv3yW-0" />
        <mxCell id="y1Utzvj6Of_-lDwIv3yW-15" value="PAYLOAD FORMAT - STATUS REPORT" style="rounded=0;whiteSpace=wrap;html=1;fillColor=none;strokeColor=none;fontFamily=Verdana;fontStyle=1;fontSize=20;" vertex="1" parent="y1Utzvj6Of_-lDwIv3yW-1">
          <mxGeometry x="120" y="460" width="600" height="40" as="geometry" />
        </mxCell>
        <mxCell id="y1Utzvj6Of_-lDwIv3yW-16" value="&lt;font&gt;0&lt;/font&gt;" style="rounded=0;whiteSpace=wrap;html=1;fillColor=#f8cecc;strokeColor=#b85450;fontColor=default;" vertex="1" parent="y1Utzvj6Of_-lDwIv3yW-1">
          <mxGeometry x="146.5" y="550" width="40" height="40" as="geometry" />
        </mxCell>
        <mxCell id="y1Utzvj6Of_-lDwIv3yW-17" value="0" style="rounded=0;whiteSpace=wrap;html=1;fillColor=#f8cecc;strokeColor=#b85450;" vertex="1" parent="y1Utzvj6Of_-lDwIv3yW-1">
          <mxGeometry x="186.5" y="550" width="40" height="40" as="geometry" />
        </mxCell>
        <mxCell id="y1Utzvj6Of_-lDwIv3yW-18" value="0" style="rounded=0;whiteSpace=wrap;html=1;fillColor=#f8cecc;strokeColor=#b85450;" vertex="1" parent="y1Utzvj6Of_-lDwIv3yW-1">
          <mxGeometry x="226.5" y="550" width="40" height="40" as="geometry" />
        </mxCell>
        <mxCell id="y1Utzvj6Of_-lDwIv3yW-19" value="0" style="rounded=0;whiteSpace=wrap;html=1;fillColor=#f8cecc;strokeColor=#b85450;" vertex="1" parent="y1Utzvj6Of_-lDwIv3yW-1">
          <mxGeometry x="266.5" y="550" width="40" height="40" as="geometry" />
        </mxCell>
        <mxCell id="y1Utzvj6Of_-lDwIv3yW-20" value="1" style="rounded=0;whiteSpace=wrap;html=1;fillColor=#f8cecc;strokeColor=#b85450;" vertex="1" parent="y1Utzvj6Of_-lDwIv3yW-1">
          <mxGeometry x="306.5" y="550" width="40" height="40" as="geometry" />
        </mxCell>
        <mxCell id="y1Utzvj6Of_-lDwIv3yW-21" value="0" style="rounded=0;whiteSpace=wrap;html=1;fillColor=#ffe6cc;strokeColor=#d79b00;" vertex="1" parent="y1Utzvj6Of_-lDwIv3yW-1">
          <mxGeometry x="346.5" y="550" width="40" height="40" as="geometry" />
        </mxCell>
        <mxCell id="y1Utzvj6Of_-lDwIv3yW-22" value="0" style="rounded=0;whiteSpace=wrap;html=1;fillColor=#ffe6cc;strokeColor=#d79b00;" vertex="1" parent="y1Utzvj6Of_-lDwIv3yW-1">
          <mxGeometry x="386.5" y="550" width="40" height="40" as="geometry" />
        </mxCell>
        <mxCell id="y1Utzvj6Of_-lDwIv3yW-23" value="0" style="rounded=0;whiteSpace=wrap;html=1;fillColor=#ffe6cc;strokeColor=#d79b00;" vertex="1" parent="y1Utzvj6Of_-lDwIv3yW-1">
          <mxGeometry x="426.5" y="550" width="40" height="40" as="geometry" />
        </mxCell>
        <mxCell id="y1Utzvj6Of_-lDwIv3yW-24" value="" style="endArrow=classic;html=1;rounded=0;startArrow=classic;startFill=1;" edge="1" parent="y1Utzvj6Of_-lDwIv3yW-1">
          <mxGeometry width="50" height="50" relative="1" as="geometry">
            <mxPoint x="146.5" y="610" as="sourcePoint" />
            <mxPoint x="466.5" y="610" as="targetPoint" />
          </mxGeometry>
        </mxCell>
        <mxCell id="y1Utzvj6Of_-lDwIv3yW-25" value="&lt;span&gt;1 Byte&lt;/span&gt;" style="rounded=0;whiteSpace=wrap;html=1;fillColor=none;strokeColor=none;fontFamily=Verdana;fontStyle=1" vertex="1" parent="y1Utzvj6Of_-lDwIv3yW-1">
          <mxGeometry x="146.5" y="620" width="320" height="40" as="geometry" />
        </mxCell>
        <mxCell id="y1Utzvj6Of_-lDwIv3yW-26" value="TYPE" style="rounded=0;whiteSpace=wrap;html=1;fillColor=#f5f5f5;strokeColor=#666666;fontColor=#333333;" vertex="1" parent="y1Utzvj6Of_-lDwIv3yW-1">
          <mxGeometry x="146.5" y="510" width="200" height="40" as="geometry" />
        </mxCell>
        <mxCell id="y1Utzvj6Of_-lDwIv3yW-27" value="PADDING" style="rounded=0;whiteSpace=wrap;html=1;fillColor=#f5f5f5;strokeColor=#666666;fontColor=#333333;" vertex="1" parent="y1Utzvj6Of_-lDwIv3yW-1">
          <mxGeometry x="346.5" y="510" width="120" height="40" as="geometry" />
        </mxCell>
        <mxCell id="y1Utzvj6Of_-lDwIv3yW-28" value="STATUS" style="rounded=0;whiteSpace=wrap;html=1;" vertex="1" parent="y1Utzvj6Of_-lDwIv3yW-1">
          <mxGeometry x="466.5" y="550" width="223.5" height="40" as="geometry" />
        </mxCell>
        <mxCell id="y1Utzvj6Of_-lDwIv3yW-29" value="" style="endArrow=classic;html=1;rounded=0;startArrow=classic;startFill=1;" edge="1" parent="y1Utzvj6Of_-lDwIv3yW-1">
          <mxGeometry width="50" height="50" relative="1" as="geometry">
            <mxPoint x="466.5" y="610" as="sourcePoint" />
            <mxPoint x="693.5" y="610" as="targetPoint" />
          </mxGeometry>
        </mxCell>
        <mxCell id="y1Utzvj6Of_-lDwIv3yW-30" value="&lt;span&gt;4 Bytes * quadcore_count&lt;/span&gt;" style="rounded=0;whiteSpace=wrap;html=1;fillColor=none;strokeColor=none;fontFamily=Verdana;fontStyle=1" vertex="1" parent="y1Utzvj6Of_-lDwIv3yW-1">
          <mxGeometry x="466.5" y="620" width="227" height="40" as="geometry" />
        </mxCell>
        <mxCell id="y1Utzvj6Of_-lDwIv3yW-31" value="RETURN DATA" style="rounded=0;whiteSpace=wrap;html=1;fillColor=#f5f5f5;strokeColor=#666666;fontColor=#333333;" vertex="1" parent="y1Utzvj6Of_-lDwIv3yW-1">
          <mxGeometry x="466.5" y="510" width="223.5" height="40" as="geometry" />
        </mxCell>
        <mxCell id="y1Utzvj6Of_-lDwIv3yW-32" value="PAYLOAD FORMAT - PASSWORD FOUND" style="rounded=0;whiteSpace=wrap;html=1;fillColor=none;strokeColor=none;fontFamily=Verdana;fontStyle=1;fontSize=20;" vertex="1" parent="y1Utzvj6Of_-lDwIv3yW-1">
          <mxGeometry x="120" y="670" width="600" height="40" as="geometry" />
        </mxCell>
        <mxCell id="y1Utzvj6Of_-lDwIv3yW-33" value="&lt;font&gt;0&lt;/font&gt;" style="rounded=0;whiteSpace=wrap;html=1;fillColor=#f8cecc;strokeColor=#b85450;fontColor=default;" vertex="1" parent="y1Utzvj6Of_-lDwIv3yW-1">
          <mxGeometry x="146.5" y="760" width="40" height="40" as="geometry" />
        </mxCell>
        <mxCell id="y1Utzvj6Of_-lDwIv3yW-34" value="0" style="rounded=0;whiteSpace=wrap;html=1;fillColor=#f8cecc;strokeColor=#b85450;" vertex="1" parent="y1Utzvj6Of_-lDwIv3yW-1">
          <mxGeometry x="186.5" y="760" width="40" height="40" as="geometry" />
        </mxCell>
        <mxCell id="y1Utzvj6Of_-lDwIv3yW-35" value="0" style="rounded=0;whiteSpace=wrap;html=1;fillColor=#f8cecc;strokeColor=#b85450;" vertex="1" parent="y1Utzvj6Of_-lDwIv3yW-1">
          <mxGeometry x="226.5" y="760" width="40" height="40" as="geometry" />
        </mxCell>
        <mxCell id="y1Utzvj6Of_-lDwIv3yW-36" value="1" style="rounded=0;whiteSpace=wrap;html=1;fillColor=#f8cecc;strokeColor=#b85450;" vertex="1" parent="y1Utzvj6Of_-lDwIv3yW-1">
          <mxGeometry x="266.5" y="760" width="40" height="40" as="geometry" />
        </mxCell>
        <mxCell id="y1Utzvj6Of_-lDwIv3yW-37" value="0" style="rounded=0;whiteSpace=wrap;html=1;fillColor=#f8cecc;strokeColor=#b85450;" vertex="1" parent="y1Utzvj6Of_-lDwIv3yW-1">
          <mxGeometry x="306.5" y="760" width="40" height="40" as="geometry" />
        </mxCell>
        <mxCell id="y1Utzvj6Of_-lDwIv3yW-38" value="0" style="rounded=0;whiteSpace=wrap;html=1;fillColor=#ffe6cc;strokeColor=#d79b00;" vertex="1" parent="y1Utzvj6Of_-lDwIv3yW-1">
          <mxGeometry x="346.5" y="760" width="40" height="40" as="geometry" />
        </mxCell>
        <mxCell id="y1Utzvj6Of_-lDwIv3yW-39" value="0" style="rounded=0;whiteSpace=wrap;html=1;fillColor=#ffe6cc;strokeColor=#d79b00;" vertex="1" parent="y1Utzvj6Of_-lDwIv3yW-1">
          <mxGeometry x="386.5" y="760" width="40" height="40" as="geometry" />
        </mxCell>
        <mxCell id="y1Utzvj6Of_-lDwIv3yW-40" value="0" style="rounded=0;whiteSpace=wrap;html=1;fillColor=#ffe6cc;strokeColor=#d79b00;" vertex="1" parent="y1Utzvj6Of_-lDwIv3yW-1">
          <mxGeometry x="426.5" y="760" width="40" height="40" as="geometry" />
        </mxCell>
        <mxCell id="y1Utzvj6Of_-lDwIv3yW-41" value="" style="endArrow=classic;html=1;rounded=0;startArrow=classic;startFill=1;" edge="1" parent="y1Utzvj6Of_-lDwIv3yW-1">
          <mxGeometry width="50" height="50" relative="1" as="geometry">
            <mxPoint x="146.5" y="820" as="sourcePoint" />
            <mxPoint x="466.5" y="820" as="targetPoint" />
          </mxGeometry>
        </mxCell>
        <mxCell id="y1Utzvj6Of_-lDwIv3yW-42" value="&lt;span&gt;1 Byte&lt;/span&gt;" style="rounded=0;whiteSpace=wrap;html=1;fillColor=none;strokeColor=none;fontFamily=Verdana;fontStyle=1" vertex="1" parent="y1Utzvj6Of_-lDwIv3yW-1">
          <mxGeometry x="146.5" y="830" width="320" height="40" as="geometry" />
        </mxCell>
        <mxCell id="y1Utzvj6Of_-lDwIv3yW-43" value="TYPE" style="rounded=0;whiteSpace=wrap;html=1;fillColor=#f5f5f5;strokeColor=#666666;fontColor=#333333;" vertex="1" parent="y1Utzvj6Of_-lDwIv3yW-1">
          <mxGeometry x="146.5" y="720" width="200" height="40" as="geometry" />
        </mxCell>
        <mxCell id="y1Utzvj6Of_-lDwIv3yW-44" value="PADDING" style="rounded=0;whiteSpace=wrap;html=1;fillColor=#f5f5f5;strokeColor=#666666;fontColor=#333333;" vertex="1" parent="y1Utzvj6Of_-lDwIv3yW-1">
          <mxGeometry x="346.5" y="720" width="120" height="40" as="geometry" />
        </mxCell>
        <mxCell id="y1Utzvj6Of_-lDwIv3yW-45" value="PASSWORD" style="rounded=0;whiteSpace=wrap;html=1;" vertex="1" parent="y1Utzvj6Of_-lDwIv3yW-1">
          <mxGeometry x="466.5" y="760" width="223.5" height="40" as="geometry" />
        </mxCell>
        <mxCell id="y1Utzvj6Of_-lDwIv3yW-46" value="" style="endArrow=classic;html=1;rounded=0;startArrow=classic;startFill=1;" edge="1" parent="y1Utzvj6Of_-lDwIv3yW-1">
          <mxGeometry width="50" height="50" relative="1" as="geometry">
            <mxPoint x="466.5" y="820" as="sourcePoint" />
            <mxPoint x="693.5" y="820" as="targetPoint" />
          </mxGeometry>
        </mxCell>
        <mxCell id="y1Utzvj6Of_-lDwIv3yW-47" value="&lt;span&gt;72 Bytes&lt;/span&gt;" style="rounded=0;whiteSpace=wrap;html=1;fillColor=none;strokeColor=none;fontFamily=Verdana;fontStyle=1" vertex="1" parent="y1Utzvj6Of_-lDwIv3yW-1">
          <mxGeometry x="466.5" y="830" width="227" height="40" as="geometry" />
        </mxCell>
        <mxCell id="y1Utzvj6Of_-lDwIv3yW-48" value="RETURN DATA" style="rounded=0;whiteSpace=wrap;html=1;fillColor=#f5f5f5;strokeColor=#666666;fontColor=#333333;" vertex="1" parent="y1Utzvj6Of_-lDwIv3yW-1">
          <mxGeometry x="466.5" y="720" width="223.5" height="40" as="geometry" />
        </mxCell>
      </root>
    </mxGraphModel>
  </diagram>
  <diagram id="L8rqRGZy4QlqfSgphd-d" name="packet_receiver">
    <mxGraphModel dx="1185" dy="648" grid="1" gridSize="10" guides="1" tooltips="1" connect="1" arrows="1" fold="1" page="0" pageScale="1" pageWidth="827" pageHeight="1169" math="0" shadow="0">
      <root>
        <mxCell id="0" />
        <mxCell id="1" parent="0" />
        <mxCell id="OYRwA-RxSn9LGTkm1P5--11" value="" style="rounded=0;whiteSpace=wrap;html=1;" vertex="1" parent="1">
          <mxGeometry x="70" y="180" width="350" height="350" as="geometry" />
        </mxCell>
        <mxCell id="pX8AiwKwW8zeXQnBwWWK-2" style="edgeStyle=orthogonalEdgeStyle;rounded=0;orthogonalLoop=1;jettySize=auto;html=1;entryX=0;entryY=0.75;entryDx=0;entryDy=0;" edge="1" parent="1" source="OYRwA-RxSn9LGTkm1P5--9" target="OYRwA-RxSn9LGTkm1P5--10">
          <mxGeometry relative="1" as="geometry">
            <Array as="points">
              <mxPoint x="140" y="500" />
            </Array>
          </mxGeometry>
        </mxCell>
        <mxCell id="OYRwA-RxSn9LGTkm1P5--9" value="COBS Decoder" style="rounded=0;whiteSpace=wrap;html=1;" vertex="1" parent="1">
          <mxGeometry x="80" y="240" width="120" height="80" as="geometry" />
        </mxCell>
        <mxCell id="H7hr1mIipIpOaoJWwVm--8" style="edgeStyle=orthogonalEdgeStyle;rounded=0;orthogonalLoop=1;jettySize=auto;html=1;" edge="1" parent="1" source="OYRwA-RxSn9LGTkm1P5--10">
          <mxGeometry relative="1" as="geometry">
            <mxPoint x="480" y="480" as="targetPoint" />
          </mxGeometry>
        </mxCell>
        <mxCell id="OYRwA-RxSn9LGTkm1P5--10" value="CRC Check" style="rounded=0;whiteSpace=wrap;html=1;" vertex="1" parent="1">
          <mxGeometry x="280" y="440" width="120" height="80" as="geometry" />
        </mxCell>
        <mxCell id="OYRwA-RxSn9LGTkm1P5--12" value="CRC Compute" style="rounded=0;whiteSpace=wrap;html=1;" vertex="1" parent="1">
          <mxGeometry x="280" y="320" width="120" height="80" as="geometry" />
        </mxCell>
        <mxCell id="NBIouWXxY7l1PNYdWkTH-1" value="" style="shape=flexArrow;endArrow=classic;html=1;rounded=0;fillColor=#4D4D4D;strokeColor=none;shadow=0;strokeWidth=1;width=10;endSize=5.761904761904762;entryX=0.5;entryY=0;entryDx=0;entryDy=0;" edge="1" parent="1" target="OYRwA-RxSn9LGTkm1P5--12">
          <mxGeometry width="50" height="50" relative="1" as="geometry">
            <mxPoint x="340" y="280" as="sourcePoint" />
            <mxPoint x="310" y="320" as="targetPoint" />
          </mxGeometry>
        </mxCell>
        <mxCell id="NBIouWXxY7l1PNYdWkTH-2" value="" style="shape=flexArrow;endArrow=classic;html=1;rounded=0;fillColor=#4D4D4D;strokeColor=none;shadow=0;strokeWidth=1;width=10;endSize=5.761904761904762;entryX=0.5;entryY=0;entryDx=0;entryDy=0;exitX=0.5;exitY=1;exitDx=0;exitDy=0;" edge="1" parent="1" source="OYRwA-RxSn9LGTkm1P5--12" target="OYRwA-RxSn9LGTkm1P5--10">
          <mxGeometry width="50" height="50" relative="1" as="geometry">
            <mxPoint x="450" y="390" as="sourcePoint" />
            <mxPoint x="450" y="430" as="targetPoint" />
          </mxGeometry>
        </mxCell>
        <mxCell id="pX8AiwKwW8zeXQnBwWWK-1" value="" style="shape=flexArrow;endArrow=classic;html=1;rounded=1;fillColor=#4D4D4D;strokeColor=none;shadow=0;strokeWidth=1;width=10;endSize=5.761904761904762;entryX=0;entryY=0.25;entryDx=0;entryDy=0;" edge="1" parent="1" target="OYRwA-RxSn9LGTkm1P5--10">
          <mxGeometry width="50" height="50" relative="1" as="geometry">
            <mxPoint x="240" y="280" as="sourcePoint" />
            <mxPoint x="250" y="480" as="targetPoint" />
            <Array as="points">
              <mxPoint x="240" y="460" />
            </Array>
          </mxGeometry>
        </mxCell>
        <mxCell id="pX8AiwKwW8zeXQnBwWWK-3" value="" style="shape=flexArrow;endArrow=classic;html=1;rounded=0;fillColor=#4D4D4D;strokeColor=none;shadow=0;strokeWidth=1;width=10;endSize=5.761904761904762;exitX=1;exitY=0.5;exitDx=0;exitDy=0;" edge="1" parent="1" source="OYRwA-RxSn9LGTkm1P5--9">
          <mxGeometry width="50" height="50" relative="1" as="geometry">
            <mxPoint x="280" y="300" as="sourcePoint" />
            <mxPoint x="480" y="280" as="targetPoint" />
          </mxGeometry>
        </mxCell>
        <mxCell id="H7hr1mIipIpOaoJWwVm--1" value="payload_finish" style="rounded=0;whiteSpace=wrap;html=1;fillColor=none;strokeColor=none;" vertex="1" parent="1">
          <mxGeometry x="140" y="500" width="140" height="20" as="geometry" />
        </mxCell>
        <mxCell id="H7hr1mIipIpOaoJWwVm--2" value="rcv_crc" style="rounded=0;whiteSpace=wrap;html=1;fillColor=none;strokeColor=none;" vertex="1" parent="1">
          <mxGeometry x="185" y="440" width="50" height="20" as="geometry" />
        </mxCell>
        <mxCell id="H7hr1mIipIpOaoJWwVm--4" value="crc_out" style="rounded=0;whiteSpace=wrap;html=1;fillColor=none;strokeColor=none;" vertex="1" parent="1">
          <mxGeometry x="360" y="410" width="50" height="20" as="geometry" />
        </mxCell>
        <mxCell id="4b0V0jhE0blXSLmyurWu-1" value="PACKET RECEIVER" style="rounded=0;whiteSpace=wrap;html=1;fillColor=none;strokeColor=none;fontStyle=1;fontSize=16;" vertex="1" parent="1">
          <mxGeometry x="70" y="180" width="210" height="40" as="geometry" />
        </mxCell>
        <mxCell id="VPAEMiJpjOIZX2oJhhca-1" value="rx_data" style="rounded=0;whiteSpace=wrap;html=1;fillColor=none;strokeColor=none;" vertex="1" parent="1">
          <mxGeometry x="10" y="260" width="60" height="20" as="geometry" />
        </mxCell>
        <mxCell id="VPAEMiJpjOIZX2oJhhca-2" value="packet_valid" style="rounded=0;whiteSpace=wrap;html=1;fillColor=none;strokeColor=none;" vertex="1" parent="1">
          <mxGeometry x="480" y="470" width="80" height="20" as="geometry" />
        </mxCell>
        <mxCell id="Lt161r6HXVmALATRhdcC-3" value="data_out" style="rounded=0;whiteSpace=wrap;html=1;fillColor=none;strokeColor=none;" vertex="1" parent="1">
          <mxGeometry x="480" y="270" width="80" height="20" as="geometry" />
        </mxCell>
        <mxCell id="Lt161r6HXVmALATRhdcC-4" value="rx_valid" style="rounded=0;whiteSpace=wrap;html=1;fillColor=none;strokeColor=none;" vertex="1" parent="1">
          <mxGeometry x="10" y="280" width="60" height="20" as="geometry" />
        </mxCell>
      </root>
    </mxGraphModel>
  </diagram>
  <diagram id="sWG0stbWaSt5cjvIcMF4" name="rx_packet_process">
    <mxGraphModel dx="1430" dy="782" grid="1" gridSize="10" guides="1" tooltips="1" connect="1" arrows="1" fold="1" page="0" pageScale="1" pageWidth="827" pageHeight="1169" math="0" shadow="0">
      <root>
        <mxCell id="0" />
        <mxCell id="1" parent="0" />
        <mxCell id="JskoURoQhUJMNRTtYPGv-28" value="" style="rounded=0;whiteSpace=wrap;html=1;" parent="1" vertex="1">
          <mxGeometry x="160" y="160" width="360" height="460" as="geometry" />
        </mxCell>
        <mxCell id="GSp2bS3jH19l8olLpKYD-3" value="COUNTER" style="rounded=0;whiteSpace=wrap;html=1;" parent="1" vertex="1">
          <mxGeometry x="240" y="240" width="80" height="80" as="geometry" />
        </mxCell>
        <mxCell id="GSp2bS3jH19l8olLpKYD-4" value="" style="endArrow=classic;html=1;rounded=0;entryX=0;entryY=0.5;entryDx=0;entryDy=0;" parent="1" target="JskoURoQhUJMNRTtYPGv-9" edge="1">
          <mxGeometry width="50" height="50" relative="1" as="geometry">
            <mxPoint x="200" y="300" as="sourcePoint" />
            <mxPoint x="230" y="380" as="targetPoint" />
            <Array as="points">
              <mxPoint x="200" y="360" />
            </Array>
          </mxGeometry>
        </mxCell>
        <mxCell id="JskoURoQhUJMNRTtYPGv-9" value="BUFFER" style="rounded=0;whiteSpace=wrap;html=1;" parent="1" vertex="1">
          <mxGeometry x="400" y="240" width="80" height="240" as="geometry" />
        </mxCell>
        <mxCell id="JskoURoQhUJMNRTtYPGv-12" value="" style="shape=flexArrow;endArrow=classic;html=1;rounded=0;entryX=0;entryY=0.75;entryDx=0;entryDy=0;fillColor=#4D4D4D;strokeColor=none;shadow=0;strokeWidth=1;width=10;endSize=5.761904761904762;" parent="1" edge="1">
          <mxGeometry width="50" height="50" relative="1" as="geometry">
            <mxPoint x="160" y="440" as="sourcePoint" />
            <mxPoint x="400" y="440" as="targetPoint" />
          </mxGeometry>
        </mxCell>
        <mxCell id="JskoURoQhUJMNRTtYPGv-14" value="RST" style="rounded=0;whiteSpace=wrap;html=1;fillColor=none;strokeColor=none;" parent="1" vertex="1">
          <mxGeometry x="200" y="240" width="40" height="20" as="geometry" />
        </mxCell>
        <mxCell id="JskoURoQhUJMNRTtYPGv-15" value="EN" style="rounded=0;whiteSpace=wrap;html=1;fillColor=none;strokeColor=none;" parent="1" vertex="1">
          <mxGeometry x="200" y="280" width="40" height="20" as="geometry" />
        </mxCell>
        <mxCell id="JskoURoQhUJMNRTtYPGv-16" value="WR_EN" style="rounded=0;whiteSpace=wrap;html=1;fillColor=none;strokeColor=none;" parent="1" vertex="1">
          <mxGeometry x="320" y="340" width="80" height="20" as="geometry" />
        </mxCell>
        <mxCell id="JskoURoQhUJMNRTtYPGv-17" value="DATA" style="rounded=0;whiteSpace=wrap;html=1;fillColor=none;strokeColor=none;" parent="1" vertex="1">
          <mxGeometry x="320" y="410" width="80" height="20" as="geometry" />
        </mxCell>
        <mxCell id="JskoURoQhUJMNRTtYPGv-21" value="" style="endArrow=classic;html=1;rounded=0;entryX=0;entryY=0.75;entryDx=0;entryDy=0;" parent="1" edge="1">
          <mxGeometry width="50" height="50" relative="1" as="geometry">
            <mxPoint x="160" y="560" as="sourcePoint" />
            <mxPoint x="400" y="560" as="targetPoint" />
          </mxGeometry>
        </mxCell>
        <mxCell id="JskoURoQhUJMNRTtYPGv-23" value="" style="shape=flexArrow;endArrow=classic;html=1;rounded=0;entryX=0;entryY=0.75;entryDx=0;entryDy=0;fillColor=#4D4D4D;strokeColor=none;shadow=0;strokeWidth=1;width=10;endSize=5.761904761904762;" parent="1" edge="1">
          <mxGeometry width="50" height="50" relative="1" as="geometry">
            <mxPoint x="480" y="259.52" as="sourcePoint" />
            <mxPoint x="560" y="259.52" as="targetPoint" />
          </mxGeometry>
        </mxCell>
        <mxCell id="JskoURoQhUJMNRTtYPGv-24" value="" style="shape=flexArrow;endArrow=classic;html=1;rounded=0;entryX=0;entryY=0.75;entryDx=0;entryDy=0;fillColor=#4D4D4D;strokeColor=none;shadow=0;strokeWidth=1;width=10;endSize=5.761904761904762;" parent="1" edge="1">
          <mxGeometry width="50" height="50" relative="1" as="geometry">
            <mxPoint x="480" y="300" as="sourcePoint" />
            <mxPoint x="560" y="300" as="targetPoint" />
          </mxGeometry>
        </mxCell>
        <mxCell id="JskoURoQhUJMNRTtYPGv-25" value="" style="shape=flexArrow;endArrow=classic;html=1;rounded=0;entryX=0;entryY=0.75;entryDx=0;entryDy=0;fillColor=#4D4D4D;strokeColor=none;shadow=0;strokeWidth=1;width=10;endSize=5.761904761904762;" parent="1" edge="1">
          <mxGeometry width="50" height="50" relative="1" as="geometry">
            <mxPoint x="480" y="340" as="sourcePoint" />
            <mxPoint x="560" y="340" as="targetPoint" />
          </mxGeometry>
        </mxCell>
        <mxCell id="JskoURoQhUJMNRTtYPGv-26" value="" style="shape=flexArrow;endArrow=classic;html=1;rounded=0;entryX=0;entryY=0.75;entryDx=0;entryDy=0;fillColor=#4D4D4D;strokeColor=none;shadow=0;strokeWidth=1;width=10;endSize=5.761904761904762;" parent="1" edge="1">
          <mxGeometry width="50" height="50" relative="1" as="geometry">
            <mxPoint x="480" y="379.76" as="sourcePoint" />
            <mxPoint x="560" y="379.76" as="targetPoint" />
          </mxGeometry>
        </mxCell>
        <mxCell id="JskoURoQhUJMNRTtYPGv-27" value="" style="shape=flexArrow;endArrow=classic;html=1;rounded=0;entryX=0;entryY=0.75;entryDx=0;entryDy=0;fillColor=#4D4D4D;strokeColor=none;shadow=0;strokeWidth=1;width=10;endSize=5.761904761904762;" parent="1" edge="1">
          <mxGeometry width="50" height="50" relative="1" as="geometry">
            <mxPoint x="480" y="419.52" as="sourcePoint" />
            <mxPoint x="560" y="419.52" as="targetPoint" />
          </mxGeometry>
        </mxCell>
        <mxCell id="JskoURoQhUJMNRTtYPGv-29" value="packet_data" style="rounded=0;whiteSpace=wrap;html=1;fillColor=none;strokeColor=none;" parent="1" vertex="1">
          <mxGeometry x="80" y="430" width="70" height="20" as="geometry" />
        </mxCell>
        <mxCell id="JskoURoQhUJMNRTtYPGv-30" value="packet_valid" style="rounded=0;whiteSpace=wrap;html=1;fillColor=none;strokeColor=none;" parent="1" vertex="1">
          <mxGeometry x="80" y="550" width="70" height="20" as="geometry" />
        </mxCell>
        <mxCell id="JskoURoQhUJMNRTtYPGv-31" value="packet_data_valid" style="rounded=0;whiteSpace=wrap;html=1;fillColor=none;strokeColor=none;" parent="1" vertex="1">
          <mxGeometry x="50" y="290" width="100" height="20" as="geometry" />
        </mxCell>
        <mxCell id="JskoURoQhUJMNRTtYPGv-32" value="packet_incomming" style="rounded=0;whiteSpace=wrap;html=1;fillColor=none;strokeColor=none;" parent="1" vertex="1">
          <mxGeometry x="50" y="250" width="100" height="20" as="geometry" />
        </mxCell>
        <mxCell id="JskoURoQhUJMNRTtYPGv-33" value="QUADCORE_ID" style="rounded=0;whiteSpace=wrap;html=1;fillColor=none;strokeColor=none;" parent="1" vertex="1">
          <mxGeometry x="565" y="250" width="110" height="20" as="geometry" />
        </mxCell>
        <mxCell id="JskoURoQhUJMNRTtYPGv-34" value="CRACK MAX" style="rounded=0;whiteSpace=wrap;html=1;fillColor=none;strokeColor=none;" parent="1" vertex="1">
          <mxGeometry x="565" y="290" width="110" height="20" as="geometry" />
        </mxCell>
        <mxCell id="JskoURoQhUJMNRTtYPGv-35" value="SALT" style="rounded=0;whiteSpace=wrap;html=1;fillColor=none;strokeColor=none;" parent="1" vertex="1">
          <mxGeometry x="565" y="330" width="110" height="20" as="geometry" />
        </mxCell>
        <mxCell id="JskoURoQhUJMNRTtYPGv-36" value="HASH" style="rounded=0;whiteSpace=wrap;html=1;fillColor=none;strokeColor=none;" parent="1" vertex="1">
          <mxGeometry x="565" y="370" width="110" height="20" as="geometry" />
        </mxCell>
        <mxCell id="JskoURoQhUJMNRTtYPGv-37" value="PWD COUNTER INIT" style="rounded=0;whiteSpace=wrap;html=1;fillColor=none;strokeColor=none;" parent="1" vertex="1">
          <mxGeometry x="560" y="410" width="120" height="20" as="geometry" />
        </mxCell>
        <mxCell id="_yyJ5cnJjGHrPfaIeFHV-1" value="&lt;font&gt;RX PACKET PROCESS&lt;/font&gt;" style="rounded=0;whiteSpace=wrap;html=1;strokeColor=none;fillColor=none;fontStyle=1;fontFamily=Verdana;" parent="1" vertex="1">
          <mxGeometry x="160" y="160" width="180" height="40" as="geometry" />
        </mxCell>
        <mxCell id="_yyJ5cnJjGHrPfaIeFHV-3" value="PWD LEN" style="rounded=0;whiteSpace=wrap;html=1;fillColor=none;strokeColor=none;" parent="1" vertex="1">
          <mxGeometry x="560" y="450" width="120" height="20" as="geometry" />
        </mxCell>
        <mxCell id="VcjB-RyUVGdS07of-8Qg-2" value="" style="shape=curlyBracket;whiteSpace=wrap;html=1;rounded=1;flipH=1;labelPosition=right;verticalLabelPosition=middle;align=left;verticalAlign=middle;" parent="1" vertex="1">
          <mxGeometry x="687" y="290" width="20" height="180" as="geometry" />
        </mxCell>
        <mxCell id="VcjB-RyUVGdS07of-8Qg-3" value="CONFIG DATA" style="rounded=0;whiteSpace=wrap;html=1;fillColor=none;strokeColor=none;" parent="1" vertex="1">
          <mxGeometry x="717" y="370" width="120" height="20" as="geometry" />
        </mxCell>
        <mxCell id="VcjB-RyUVGdS07of-8Qg-4" value="MUX SELECT" style="rounded=0;whiteSpace=wrap;html=1;fillColor=none;strokeColor=none;" parent="1" vertex="1">
          <mxGeometry x="717" y="250" width="120" height="20" as="geometry" />
        </mxCell>
        <mxCell id="aQMbH_dHhUDy_lQyF-gT-3" value="" style="endArrow=classic;html=1;rounded=0;entryX=0.1;entryY=0.5;entryDx=0;entryDy=0;entryPerimeter=0;" parent="1" target="aQMbH_dHhUDy_lQyF-gT-4" edge="1">
          <mxGeometry width="50" height="50" relative="1" as="geometry">
            <mxPoint x="160" y="260" as="sourcePoint" />
            <mxPoint x="220" y="260" as="targetPoint" />
            <Array as="points">
              <mxPoint x="200" y="260" />
            </Array>
          </mxGeometry>
        </mxCell>
        <mxCell id="aQMbH_dHhUDy_lQyF-gT-4" value="" style="verticalLabelPosition=bottom;shadow=0;dashed=0;align=center;html=1;verticalAlign=top;shape=mxgraph.electrical.logic_gates.inverting_contact;" parent="1" vertex="1">
          <mxGeometry x="230" y="255" width="10" height="10" as="geometry" />
        </mxCell>
        <mxCell id="aQMbH_dHhUDy_lQyF-gT-6" value="" style="endArrow=classic;html=1;rounded=0;entryX=0.1;entryY=0.5;entryDx=0;entryDy=0;entryPerimeter=0;" parent="1" edge="1">
          <mxGeometry width="50" height="50" relative="1" as="geometry">
            <mxPoint x="160" y="300" as="sourcePoint" />
            <mxPoint x="240" y="300" as="targetPoint" />
            <Array as="points">
              <mxPoint x="209" y="300" />
            </Array>
          </mxGeometry>
        </mxCell>
        <mxCell id="aQMbH_dHhUDy_lQyF-gT-7" value="ADDR" style="rounded=0;whiteSpace=wrap;html=1;fillColor=none;strokeColor=none;" parent="1" vertex="1">
          <mxGeometry x="320" y="250" width="80" height="20" as="geometry" />
        </mxCell>
        <mxCell id="aQMbH_dHhUDy_lQyF-gT-8" value="" style="shape=flexArrow;endArrow=classic;html=1;rounded=0;fillColor=#4D4D4D;strokeColor=none;shadow=0;strokeWidth=1;width=10;endSize=5.761904761904762;exitX=1;exitY=0.5;exitDx=0;exitDy=0;" parent="1" source="GSp2bS3jH19l8olLpKYD-3" edge="1">
          <mxGeometry width="50" height="50" relative="1" as="geometry">
            <mxPoint x="330" y="290" as="sourcePoint" />
            <mxPoint x="400" y="280" as="targetPoint" />
          </mxGeometry>
        </mxCell>
        <mxCell id="aQMbH_dHhUDy_lQyF-gT-9" value="" style="shape=flexArrow;endArrow=classic;html=1;rounded=0;entryX=0;entryY=0.75;entryDx=0;entryDy=0;fillColor=#4D4D4D;strokeColor=none;shadow=0;strokeWidth=1;width=10;endSize=5.761904761904762;" parent="1" edge="1">
          <mxGeometry width="50" height="50" relative="1" as="geometry">
            <mxPoint x="480" y="459.43" as="sourcePoint" />
            <mxPoint x="560" y="459.43" as="targetPoint" />
          </mxGeometry>
        </mxCell>
        <mxCell id="aQMbH_dHhUDy_lQyF-gT-10" value="ERROR&lt;div&gt;CHECK&lt;/div&gt;" style="rounded=0;whiteSpace=wrap;html=1;" parent="1" vertex="1">
          <mxGeometry x="400" y="520" width="80" height="80" as="geometry" />
        </mxCell>
        <mxCell id="aQMbH_dHhUDy_lQyF-gT-11" value="" style="shape=flexArrow;endArrow=classic;html=1;rounded=0;entryX=0.5;entryY=0;entryDx=0;entryDy=0;fillColor=#4D4D4D;strokeColor=none;shadow=0;strokeWidth=1;width=10;endSize=5.761904761904762;exitX=0.5;exitY=1;exitDx=0;exitDy=0;" parent="1" source="JskoURoQhUJMNRTtYPGv-9" target="aQMbH_dHhUDy_lQyF-gT-10" edge="1">
          <mxGeometry width="50" height="50" relative="1" as="geometry">
            <mxPoint x="490" y="500" as="sourcePoint" />
            <mxPoint x="570" y="500" as="targetPoint" />
          </mxGeometry>
        </mxCell>
        <mxCell id="aQMbH_dHhUDy_lQyF-gT-12" value="" style="endArrow=classic;html=1;rounded=0;" parent="1" edge="1">
          <mxGeometry width="50" height="50" relative="1" as="geometry">
            <mxPoint x="480" y="559.71" as="sourcePoint" />
            <mxPoint x="560" y="560" as="targetPoint" />
          </mxGeometry>
        </mxCell>
        <mxCell id="aQMbH_dHhUDy_lQyF-gT-13" value="OUTPUT ENABLE" style="rounded=0;whiteSpace=wrap;html=1;fillColor=none;strokeColor=none;" parent="1" vertex="1">
          <mxGeometry x="560" y="550" width="120" height="20" as="geometry" />
        </mxCell>
        <mxCell id="omkYV4VHHeXfS2ODnkAh-1" value="" style="endArrow=none;dashed=1;html=1;dashPattern=1 3;strokeWidth=2;rounded=0;" edge="1" parent="1">
          <mxGeometry width="50" height="50" relative="1" as="geometry">
            <mxPoint x="717" y="620" as="sourcePoint" />
            <mxPoint x="717" y="160" as="targetPoint" />
          </mxGeometry>
        </mxCell>
        <mxCell id="u7K3j5UYhoAnkS7HQG6p-3" value="" style="shape=flexArrow;endArrow=classic;html=1;rounded=0;fillColor=#4D4D4D;strokeColor=none;shadow=0;strokeWidth=1;width=10;endSize=5.761904761904762;" edge="1" parent="1">
          <mxGeometry width="50" height="50" relative="1" as="geometry">
            <mxPoint x="439.71" y="600.0028571428574" as="sourcePoint" />
            <mxPoint x="439.71" y="680" as="targetPoint" />
          </mxGeometry>
        </mxCell>
        <mxCell id="u7K3j5UYhoAnkS7HQG6p-4" value="ERROR CODE" style="rounded=0;whiteSpace=wrap;html=1;fillColor=none;strokeColor=none;" vertex="1" parent="1">
          <mxGeometry x="360" y="680" width="160" height="20" as="geometry" />
        </mxCell>
      </root>
    </mxGraphModel>
  </diagram>
</mxfile>
